G04 DipTrace 3.3.1.0*
G04 GPIB-USBAR488v1.012Mar2019.GBO*
%MOIN*%
G04 #@! TF.FileFunction,Legend,Bot*
G04 #@! TF.Part,Single*
%ADD10C,0.009843*%
%ADD12C,0.002992*%
%ADD73C,0.006176*%
%FSLAX26Y26*%
G04*
G70*
G90*
G75*
G01*
G04 BotSilk*
%LPD*%
X620791Y2181024D2*
D10*
X522358D1*
X620791Y2188472D2*
X522358D1*
X620791D2*
Y2164913D1*
X522358Y2188472D2*
Y2164913D1*
X527476Y1872362D2*
X625909D1*
X527476Y1864913D2*
X625909D1*
X527476D2*
Y1888472D1*
X625909Y1864913D2*
Y1888472D1*
X1127480Y1950909D2*
Y1852476D1*
X1120031Y1950909D2*
Y1852476D1*
Y1950909D2*
X1143591D1*
X1120031Y1852476D2*
X1143591D1*
X1126194Y1671274D2*
Y1572841D1*
X1118745Y1671274D2*
Y1572841D1*
Y1671274D2*
X1142304D1*
X1118745Y1572841D2*
X1142304D1*
X1497358Y1372362D2*
X1595791D1*
X1497358Y1364913D2*
X1595791D1*
X1497358D2*
Y1388472D1*
X1595791Y1364913D2*
Y1388472D1*
X1077480Y2225909D2*
Y2127476D1*
X1070031Y2225909D2*
Y2127476D1*
Y2225909D2*
X1093591D1*
X1070031Y2127476D2*
X1093591D1*
X843842Y1318540D2*
D12*
X846834D1*
X839927Y1315548D2*
X851310D1*
X835946Y1312556D2*
X855439D1*
X831987Y1309564D2*
X859202D1*
X828614Y1306572D2*
X862438D1*
X825919Y1303579D2*
X865274D1*
X823404Y1300587D2*
X868145D1*
X820571Y1297595D2*
X871285D1*
X817403Y1294603D2*
X874636D1*
X814310Y1291611D2*
X877912D1*
X811675Y1288619D2*
X880866D1*
X809817Y1285627D2*
X883178D1*
X808706Y1282635D2*
X844790D1*
X849826D2*
X884661D1*
X798960Y1279642D2*
X840500D1*
X852818D2*
X891716D1*
X797697Y1276650D2*
X836851D1*
X855810D2*
X894350D1*
X795923Y1273658D2*
X833558D1*
X858802D2*
X897361D1*
X793412Y1270666D2*
X830451D1*
X861783D2*
X900369D1*
X790276Y1267674D2*
X827408D1*
X864682D2*
X902964D1*
X786842Y1264682D2*
X824392D1*
X867409D2*
X904806D1*
X783393Y1261690D2*
X821296D1*
X870160D2*
X905910D1*
X780275Y1258698D2*
X818019D1*
X873377D2*
X912661D1*
X777395Y1255705D2*
X814604D1*
X876950D2*
X915295D1*
X774266Y1252713D2*
X811372D1*
X880237D2*
X918306D1*
X770797Y1249721D2*
X808456D1*
X883146D2*
X921337D1*
X767398Y1246729D2*
X805616D1*
X886062D2*
X924153D1*
X764345Y1243737D2*
X802349D1*
X889223D2*
X926864D1*
X761403Y1240745D2*
X798668D1*
X834865D2*
D3*
X892583D2*
X929842D1*
X758285Y1237753D2*
X795111D1*
X825889D2*
X828881D1*
X861795D2*
D3*
X895862D2*
X933183D1*
X754772Y1234761D2*
X791993D1*
X823918D2*
X827858D1*
X862818D2*
X864787D1*
X898818D2*
X936711D1*
X751041Y1231768D2*
X789601D1*
X821322D2*
X826960D1*
X863716D2*
X869721D1*
X901130D2*
X940284D1*
X747766Y1228776D2*
X788082D1*
X818326D2*
X826346D1*
X864330D2*
X873721D1*
X902613D2*
X943689D1*
X745110Y1225784D2*
X781007D1*
X815041D2*
X819905D1*
X870771D2*
X876952D1*
X909669D2*
X946909D1*
X742609Y1222792D2*
X779060D1*
X811510D2*
X818756D1*
X872817D2*
X879999D1*
X912200D2*
X950090D1*
X739781Y1219800D2*
X776684D1*
X807900D2*
X817365D1*
X874598D2*
X883212D1*
X914945D2*
X953314D1*
X736603Y1216808D2*
X774550D1*
X804380D2*
X815583D1*
X875737D2*
X886589D1*
X917734D2*
X956469D1*
X733382Y1213816D2*
X773102D1*
X801247D2*
X813319D1*
X876355D2*
X889898D1*
X920764D2*
X959371D1*
X730156Y1210824D2*
X766047D1*
X798462D2*
X810789D1*
X882739D2*
X893065D1*
X923962D2*
X962216D1*
X726818Y1207831D2*
X766047D1*
X795699D2*
X808334D1*
X883763D2*
X896136D1*
X926935D2*
X965114D1*
X723460Y1204839D2*
X760062D1*
X792852D2*
X806122D1*
X884661D2*
X899066D1*
X929659D2*
X968050D1*
X720405Y1201847D2*
X758337D1*
X789932D2*
X803921D1*
X885274D2*
X901790D1*
X932403D2*
X971024D1*
X717653Y1198855D2*
X755833D1*
X786972D2*
X801471D1*
X891716D2*
X904365D1*
X935338D2*
X974014D1*
X714904Y1195863D2*
X752675D1*
X783992D2*
X798865D1*
X893201D2*
X907119D1*
X938538D2*
X977089D1*
X712050Y1192871D2*
X749606D1*
X780993D2*
X796382D1*
X894834D2*
X910211D1*
X941931D2*
X980270D1*
X709039Y1189879D2*
X747029D1*
X777909D2*
X794171D1*
X896186D2*
X913555D1*
X945243D2*
X983407D1*
X705791Y1186887D2*
X745945D1*
X774653D2*
X792071D1*
X897064D2*
X916941D1*
X948419D2*
X986280D1*
X702383Y1183894D2*
X739117D1*
X771441D2*
X789990D1*
X903684D2*
X920390D1*
X951498D2*
X988913D1*
X699057Y1180902D2*
X736484D1*
X768879D2*
X787994D1*
X905193D2*
X923899D1*
X954539D2*
X991041D1*
X695871Y1177910D2*
X733472D1*
X767233D2*
X785897D1*
X907054D2*
X927261D1*
X957640D2*
X992433D1*
X692704Y1174918D2*
X730464D1*
X760062D2*
X783482D1*
X909330D2*
X930455D1*
X960925D2*
X999432D1*
X689485Y1171926D2*
X727869D1*
X758115D2*
X780804D1*
X912255D2*
X933542D1*
X964348D2*
X1002078D1*
X686332Y1168934D2*
X726027D1*
X755739D2*
X778015D1*
X915653D2*
X936574D1*
X967667D2*
X1005195D1*
X683430Y1165942D2*
X724923D1*
X753605D2*
X804944D1*
X885732D2*
X939581D1*
X970761D2*
X1008595D1*
X680574Y1162949D2*
X715180D1*
X752158D2*
X804944D1*
X886480D2*
X942591D1*
X973653D2*
X1012023D1*
X677582Y1159957D2*
X713209D1*
X745102D2*
X804944D1*
X888702D2*
X945678D1*
X976537D2*
X1015120D1*
X674370Y1156965D2*
X710625D1*
X742468D2*
X798960D1*
X891617D2*
X948936D1*
X979639D2*
X1017891D1*
X671061Y1153973D2*
X707734D1*
X739440D2*
X796887D1*
X894938D2*
X952148D1*
X982787D2*
X1020649D1*
X668021Y1150981D2*
X704843D1*
X736291D2*
X794024D1*
X898337D2*
X954710D1*
X985875D2*
X1023506D1*
X665179Y1147989D2*
X702122D1*
X733133D2*
X790809D1*
X901423D2*
X956356D1*
X988924D2*
X1026519D1*
X662150Y1144997D2*
X699543D1*
X739775D2*
X787983D1*
X904192D2*
X957543D1*
X991947D2*
X1029755D1*
X658875Y1142005D2*
X696787D1*
X745786D2*
X785682D1*
X906937D2*
X939590D1*
X995035D2*
X1033070D1*
X655624Y1139012D2*
X693717D1*
X751086D2*
X784736D1*
X909665D2*
X942919D1*
X998196D2*
X1036108D1*
X652487Y1136020D2*
X690594D1*
X748094D2*
X778015D1*
X912087D2*
X946154D1*
X1001126D2*
X1038853D1*
X649512Y1133028D2*
X688069D1*
X745102D2*
X778015D1*
X913843D2*
X948723D1*
X1003574D2*
X1041600D1*
X646752Y1130036D2*
X686438D1*
X742110D2*
X778015D1*
X914908D2*
X950371D1*
X1004610D2*
X1044453D1*
X643988Y1127044D2*
X1047464D1*
X640777Y1124052D2*
X1050688D1*
X637318Y1121060D2*
X1053887D1*
X634509Y1118068D2*
X1056445D1*
X632702Y1115075D2*
X667894D1*
X676283D2*
X1017385D1*
X1023021D2*
X1058089D1*
X625417Y1112083D2*
X666133D1*
X676283D2*
X1017385D1*
X1025655D2*
X1065259D1*
X623469Y1109091D2*
X665063D1*
X676283D2*
X1017385D1*
X1028578D2*
X1067333D1*
X621094Y1106099D2*
X658330D1*
X676283D2*
X697228D1*
X996440D2*
X1017385D1*
X1031720D2*
X1070195D1*
X618960Y1103107D2*
X656045D1*
X676283D2*
X697228D1*
X996440D2*
X1017385D1*
X1034691D2*
X1073434D1*
X617512Y1100115D2*
X653380D1*
X676283D2*
X697228D1*
X843842D2*
X852818D1*
X996440D2*
X1017385D1*
X1037592D2*
X1076481D1*
X610456Y1097123D2*
X650313D1*
X676283D2*
X697228D1*
X810928D2*
X885732D1*
X996440D2*
X1017385D1*
X1040896D2*
X1079338D1*
X610456Y1094131D2*
X646989D1*
X676283D2*
X697228D1*
X810928D2*
X885732D1*
X996440D2*
X1017385D1*
X1044594D2*
X1082377D1*
X604472Y1091138D2*
X643792D1*
X676283D2*
X697228D1*
X800812D2*
X895859D1*
X996440D2*
X1017385D1*
X1048170D2*
X1085656D1*
X604472Y1088146D2*
X640901D1*
X676283D2*
X697228D1*
X792344D2*
X904410D1*
X996440D2*
X1017385D1*
X1051408D2*
X1088909D1*
X598488Y1085154D2*
X638160D1*
X676283D2*
X697228D1*
X785354D2*
X911582D1*
X996440D2*
X1017385D1*
X1054294D2*
X1092058D1*
X596414Y1082162D2*
X635171D1*
X676283D2*
X697228D1*
X779349D2*
X917658D1*
X996440D2*
X1017385D1*
X1057028D2*
X1095127D1*
X593551Y1079170D2*
X631826D1*
X676283D2*
X697228D1*
X774060D2*
X922756D1*
X996440D2*
X1017385D1*
X1060084D2*
X1098140D1*
X590313Y1076178D2*
X628308D1*
X676283D2*
X697228D1*
X769673D2*
X927123D1*
X996440D2*
X1017397D1*
X1063521D2*
X1101052D1*
X587277Y1073186D2*
X624828D1*
X655338D2*
D3*
X676259D2*
X697228D1*
X766150D2*
X930982D1*
X996440D2*
X1017502D1*
X1035338D2*
D3*
X1066907D2*
X1103773D1*
X584514Y1070194D2*
X621698D1*
X652346D2*
X658330D1*
X676037D2*
X697228D1*
X762925D2*
X934340D1*
X996440D2*
X1017907D1*
X1033957D2*
X1038330D1*
X1069956D2*
X1106431D1*
X581739Y1067201D2*
X618814D1*
X649354D2*
X658330D1*
X675511D2*
X697228D1*
X759540D2*
X937462D1*
X996440D2*
X1018852D1*
X1033097D2*
X1041322D1*
X1072884D2*
X1109385D1*
X578702Y1064209D2*
X615684D1*
X646373D2*
X658330D1*
X673299D2*
X697228D1*
X755852D2*
X940672D1*
X996440D2*
X1020551D1*
X1032662D2*
X1044314D1*
X1075896D2*
X1112716D1*
X575223Y1061217D2*
X612214D1*
X643475D2*
X658330D1*
X670428D2*
X697228D1*
X752194D2*
X943863D1*
X996440D2*
X1023164D1*
X1032461D2*
X1047306D1*
X1079040D2*
X1116241D1*
X571505Y1058225D2*
X608815D1*
X640759D2*
X658330D1*
X667306D2*
X697228D1*
X748972D2*
X821543D1*
X876516D2*
X946968D1*
X996440D2*
X1026362D1*
X1032346D2*
X1050299D1*
X1082159D2*
X1119812D1*
X568235Y1055233D2*
X605762D1*
X638102D2*
X697228D1*
X746145D2*
X812801D1*
X884608D2*
X950000D1*
X996440D2*
X1053291D1*
X1085025D2*
X1123206D1*
X565581Y1052241D2*
X602843D1*
X635149D2*
X697228D1*
X743470D2*
X805599D1*
X891629D2*
X952814D1*
X996440D2*
X1056294D1*
X1087655D2*
X1126332D1*
X563081Y1049249D2*
X599936D1*
X631818D2*
X697228D1*
X741002D2*
X799272D1*
X897645D2*
X955140D1*
X996440D2*
X1059380D1*
X1089782D2*
X1129236D1*
X560241Y1046257D2*
X597196D1*
X628305D2*
X697228D1*
X738894D2*
X793550D1*
X902821D2*
X956892D1*
X996440D2*
X1062660D1*
X1091173D2*
X1132125D1*
X556970Y1043264D2*
X594987D1*
X624827D2*
X697228D1*
X736994D2*
X788453D1*
X907189D2*
X958497D1*
X996440D2*
X1066081D1*
X1098173D2*
X1135229D1*
X553473Y1040272D2*
X593549D1*
X621710D2*
X697228D1*
X735075D2*
X784011D1*
X911098D2*
X960328D1*
X996440D2*
X1069400D1*
X1098173D2*
X1138377D1*
X549912Y1037280D2*
X586519D1*
X618919D2*
X697228D1*
X733080D2*
X780190D1*
X914791D2*
X962416D1*
X996440D2*
X1072494D1*
X1104157D2*
X1141477D1*
X546523Y1034288D2*
X584011D1*
X616065D2*
X697228D1*
X731133D2*
X776804D1*
X918112D2*
X964391D1*
X996440D2*
X1075385D1*
X1106791D2*
X1144620D1*
X543399Y1031296D2*
X581487D1*
X612931D2*
X670196D1*
X676283D2*
X697228D1*
X729167D2*
X773645D1*
X920838D2*
X966065D1*
X996440D2*
X1078269D1*
X1109814D2*
X1147918D1*
X540494Y1028304D2*
X579566D1*
X609583D2*
X630606D1*
X637385D2*
X666914D1*
X676283D2*
X697228D1*
X727253D2*
X770682D1*
X922730D2*
X967776D1*
X996440D2*
X1017385D1*
X1023832D2*
X1081372D1*
X1112938D2*
X1151353D1*
X537617Y1025312D2*
X578379D1*
X606296D2*
X627961D1*
X637385D2*
X663493D1*
X676283D2*
X697228D1*
X725775D2*
X767959D1*
X923853D2*
X969536D1*
X996440D2*
X1017385D1*
X1027554D2*
X1053291D1*
X1061781D2*
X1084519D1*
X1116031D2*
X1154683D1*
X534607Y1022320D2*
X571558D1*
X603214D2*
X624398D1*
X637385D2*
X660162D1*
X676283D2*
X697228D1*
X724900D2*
X765496D1*
X930614D2*
X970950D1*
X996440D2*
X1017385D1*
X1031227D2*
X1053291D1*
X1066813D2*
X1087619D1*
X1119077D2*
X1157853D1*
X531735Y1019327D2*
X571558D1*
X600316D2*
X620467D1*
X637385D2*
X656986D1*
X676283D2*
X697228D1*
X724466D2*
X763228D1*
X932671D2*
X971909D1*
X996440D2*
X1017385D1*
X1034467D2*
X1053291D1*
X1071260D2*
X1090762D1*
X1122105D2*
X1160841D1*
X528982Y1016335D2*
X565574D1*
X597351D2*
X616394D1*
X637385D2*
X653912D1*
X676283D2*
X697228D1*
X724270D2*
X761256D1*
X934557D2*
X972815D1*
X996440D2*
X1017385D1*
X1037402D2*
X1053291D1*
X1075276D2*
X1094060D1*
X1125201D2*
X1163583D1*
X525995Y1013343D2*
X562940D1*
X594067D2*
X611982D1*
X637385D2*
X650982D1*
X676283D2*
X697228D1*
X718173D2*
X759618D1*
X936073D2*
X974098D1*
X996440D2*
X1017385D1*
X1040471D2*
X1053291D1*
X1079342D2*
X1097484D1*
X1128461D2*
X1166161D1*
X522833Y1010351D2*
X559917D1*
X590861D2*
X607358D1*
X637385D2*
X648278D1*
X676283D2*
X697228D1*
X718161D2*
X758389D1*
X937388D2*
X975657D1*
X996440D2*
X1017385D1*
X1043767D2*
X1053291D1*
X1083751D2*
X1100719D1*
X1131675D2*
X1168832D1*
X519858Y1007359D2*
X556793D1*
X588057D2*
X603003D1*
X637385D2*
X645803D1*
X676283D2*
X697228D1*
X718056D2*
X757554D1*
X938524D2*
X976974D1*
X996440D2*
X1017385D1*
X1047054D2*
X1053291D1*
X1088201D2*
X1103625D1*
X1134238D2*
X1171736D1*
X517040Y1004367D2*
X553688D1*
X585327D2*
X599071D1*
X637385D2*
X643369D1*
X676283D2*
X697228D1*
X717674D2*
X756711D1*
X939547D2*
X977783D1*
X996440D2*
X1017385D1*
X1050299D2*
X1053291D1*
X1092381D2*
X1106371D1*
X1135884D2*
X1174923D1*
X513936Y1001375D2*
X550549D1*
X582525D2*
X595180D1*
X676283D2*
X697228D1*
X716958D2*
X755457D1*
X940688D2*
X978191D1*
X996440D2*
X1017385D1*
X1096286D2*
X1109339D1*
X1143054D2*
X1178299D1*
X510477Y998383D2*
X547268D1*
X580193D2*
X590919D1*
X676283D2*
X697228D1*
X716191D2*
X753910D1*
X941978D2*
X978383D1*
X996440D2*
X1017385D1*
X1100299D2*
X1112474D1*
X1145563D2*
X1181494D1*
X507081Y995390D2*
X544046D1*
X578661D2*
X586463D1*
X676283D2*
X697228D1*
X715669D2*
X752586D1*
X943275D2*
X978562D1*
X996440D2*
X1017385D1*
X1104599D2*
X1115219D1*
X1148086D2*
X1184171D1*
X504029Y992398D2*
X541479D1*
X571558D2*
X582418D1*
X676283D2*
X697228D1*
X715391D2*
X751673D1*
X944341D2*
X978971D1*
X996440D2*
X1017385D1*
X1108779D2*
X1117160D1*
X1150007D2*
X1186046D1*
X501088Y989406D2*
X539832D1*
X571558D2*
X578836D1*
X676283D2*
X697228D1*
X715253D2*
X750884D1*
X944998D2*
X979709D1*
X996440D2*
X1017385D1*
X1112733D2*
X1118317D1*
X1151195D2*
X1187163D1*
X497970Y986414D2*
X532661D1*
X565574D2*
X575006D1*
X676283D2*
X697228D1*
X715095D2*
X749987D1*
X945331D2*
X980585D1*
X996440D2*
X1017385D1*
X1117026D2*
X1125102D1*
X1158015D2*
X1196913D1*
X494457Y983422D2*
X530387D1*
X564172D2*
X570480D1*
X676283D2*
X697228D1*
X714693D2*
X749147D1*
X945490D2*
X981489D1*
X996440D2*
X1017385D1*
X1122238D2*
X1125102D1*
X1160637D2*
X1198884D1*
X490726Y980430D2*
X527816D1*
X562582D2*
X565574D1*
X676283D2*
X697228D1*
X713969D2*
X748597D1*
X876755D2*
X879747D1*
X945656D2*
X982483D1*
X996440D2*
X1017385D1*
X1128094D2*
D3*
X1163567D2*
X1201468D1*
X487462Y977438D2*
X525036D1*
X676283D2*
X697228D1*
X713200D2*
X748310D1*
X876755D2*
X882532D1*
X946048D2*
X983378D1*
X996440D2*
X1017385D1*
X1166415D2*
X1204348D1*
X484923Y974446D2*
X522153D1*
X556598D2*
D3*
X676283D2*
X697228D1*
X712677D2*
X748179D1*
X876755D2*
X884382D1*
X946668D2*
X983952D1*
X996440D2*
X1017385D1*
X1169161D2*
X1207122D1*
X482932Y971453D2*
X519423D1*
X676283D2*
X697228D1*
X712399D2*
X748126D1*
X876755D2*
X891716D1*
X947056D2*
X984250D1*
X996440D2*
X1017385D1*
X1172028D2*
X1209345D1*
X481424Y968461D2*
X516960D1*
X676283D2*
X697228D1*
X712284D2*
X748105D1*
X876755D2*
X893899D1*
X946863D2*
X984372D1*
X996440D2*
X1017385D1*
X1174663D2*
X1210956D1*
X480298Y965469D2*
X516028D1*
X676283D2*
X697228D1*
X712337D2*
X748098D1*
X876755D2*
X896274D1*
X946373D2*
X984322D1*
X996440D2*
X1017385D1*
X1176695D2*
X1211317D1*
X480657Y962477D2*
X516610D1*
X676283D2*
X697228D1*
X712698D2*
X748107D1*
X876755D2*
X898900D1*
X945978D2*
X983962D1*
X996440D2*
X1017385D1*
X1177085D2*
X1211344D1*
X481539Y959485D2*
X518616D1*
X676283D2*
X697228D1*
X713407D2*
X748211D1*
X876755D2*
X901804D1*
X945754D2*
X983241D1*
X996440D2*
X1017385D1*
X1174351D2*
X1210033D1*
X482872Y956493D2*
X521080D1*
X676283D2*
X697228D1*
X714172D2*
X748592D1*
X876755D2*
X904622D1*
X945635D2*
X982372D1*
X996440D2*
X1017385D1*
X1171453D2*
X1208043D1*
X484831Y953501D2*
X523847D1*
X556598D2*
D3*
X676283D2*
X697228D1*
X714693D2*
X749320D1*
X876755D2*
X907266D1*
X945473D2*
X981469D1*
X996440D2*
X1017385D1*
X1134078D2*
D3*
X1168480D2*
X1205542D1*
X487677Y950509D2*
X526837D1*
X562582D2*
X565574D1*
X676283D2*
X697228D1*
X714981D2*
X750193D1*
X876755D2*
X909972D1*
X944969D2*
X980476D1*
X996440D2*
X1017385D1*
X1165392D2*
X1202751D1*
X491176Y947516D2*
X530069D1*
X563605D2*
X568670D1*
X676283D2*
X697228D1*
X715213D2*
X751108D1*
X876755D2*
X912797D1*
X943865D2*
X979582D1*
X996440D2*
X1017385D1*
X1125102D2*
X1131086D1*
X1162127D2*
X1199751D1*
X494673Y944524D2*
X533384D1*
X564504D2*
X572436D1*
X676283D2*
X697228D1*
X715647D2*
X752207D1*
X876767D2*
X915709D1*
X942367D2*
X979007D1*
X996440D2*
X1017385D1*
X1120614D2*
X1128302D1*
X1158805D2*
X1196514D1*
X497892Y941532D2*
X536422D1*
X565117D2*
X576346D1*
X676283D2*
X697228D1*
X716384D2*
X753482D1*
X876884D2*
X918666D1*
X940963D2*
X978710D1*
X996440D2*
X1017385D1*
X1116368D2*
X1126452D1*
X1155848D2*
X1193186D1*
X500861Y938540D2*
X539179D1*
X571558D2*
X580080D1*
X676283D2*
X697228D1*
X717159D2*
X754785D1*
X877382D2*
X921645D1*
X939698D2*
X978564D1*
X996440D2*
X1017385D1*
X1112107D2*
X1119117D1*
X1153279D2*
X1190054D1*
X503868Y935548D2*
X542032D1*
X574192D2*
X583890D1*
X676283D2*
X697228D1*
X717695D2*
X755955D1*
X878609D2*
X924632D1*
X938250D2*
X978392D1*
X996440D2*
X1017385D1*
X1107668D2*
X1117393D1*
X1150583D2*
X1187044D1*
X507258Y932556D2*
X545243D1*
X577204D2*
X588132D1*
X676283D2*
X697228D1*
X718090D2*
X756992D1*
X880684D2*
X927621D1*
X936598D2*
X977884D1*
X996440D2*
X1017385D1*
X1102978D2*
X1114888D1*
X1147370D2*
X1184077D1*
X510745Y929564D2*
X548772D1*
X580235D2*
X592682D1*
X676283D2*
X697228D1*
X718704D2*
X758041D1*
X883464D2*
X976779D1*
X996440D2*
X1017385D1*
X1098195D2*
X1111719D1*
X1143967D2*
X1181666D1*
X513897Y926572D2*
X552129D1*
X583051D2*
X597104D1*
X640377D2*
D3*
X676283D2*
X697228D1*
X719854D2*
X758957D1*
X886581D2*
X975292D1*
X996440D2*
X1017385D1*
X1050299D2*
X1053291D1*
X1093764D2*
X1108533D1*
X1140851D2*
X1180098D1*
X516795Y923579D2*
X555007D1*
X585762D2*
X601379D1*
X638996D2*
X643369D1*
X676283D2*
X697228D1*
X721370D2*
X759541D1*
X889551D2*
X973979D1*
X996440D2*
X1017385D1*
X1048227D2*
X1053291D1*
X1089823D2*
X1105802D1*
X1137967D2*
X1172976D1*
X519838Y920587D2*
X557769D1*
X588716D2*
X605760D1*
X638137D2*
X646362D1*
X676283D2*
X697228D1*
X722771D2*
X759858D1*
X892360D2*
X972969D1*
X996440D2*
X1017385D1*
X1045835D2*
X1053291D1*
X1086141D2*
X1103236D1*
X1134907D2*
X1170702D1*
X523029Y917595D2*
X560584D1*
X591870D2*
X609920D1*
X637702D2*
X649354D1*
X676283D2*
X697228D1*
X723966D2*
X766047D1*
X895373D2*
X971802D1*
X996440D2*
X1017385D1*
X1042981D2*
X1053291D1*
X1082742D2*
X1100362D1*
X1131530D2*
X1168142D1*
X526007Y914603D2*
X562921D1*
X594835D2*
X613532D1*
X637509D2*
X652346D1*
X676283D2*
X697228D1*
X725193D2*
X766047D1*
X898546D2*
X970177D1*
X996440D2*
X1017385D1*
X1039944D2*
X1053291D1*
X1080104D2*
X1097170D1*
X1128000D2*
X1165445D1*
X528822Y911611D2*
X564455D1*
X597643D2*
X615160D1*
X637431D2*
X655338D1*
X676283D2*
X697228D1*
X726533D2*
X766047D1*
X901501D2*
X968465D1*
X996440D2*
X1017385D1*
X1036888D2*
X1053291D1*
X1078429D2*
X1093947D1*
X1124515D2*
X1162732D1*
X531840Y908619D2*
X571558D1*
X600671D2*
X625417D1*
X637401D2*
X658330D1*
X676283D2*
X697228D1*
X727961D2*
X772031D1*
X904098D2*
X967012D1*
X996440D2*
X1017385D1*
X1033761D2*
X1053291D1*
X1070601D2*
X1090805D1*
X1121396D2*
X1159922D1*
X535099Y905627D2*
X574192D1*
X604035D2*
X628222D1*
X637390D2*
X661322D1*
X676283D2*
X697228D1*
X729520D2*
X774676D1*
X906335D2*
X965731D1*
X996440D2*
X1017385D1*
X1030450D2*
X1053291D1*
X1065030D2*
X1087655D1*
X1118604D2*
X1156848D1*
X538255Y902635D2*
X577204D1*
X607560D2*
X631401D1*
X637385D2*
X664314D1*
X676283D2*
X697228D1*
X731288D2*
X777805D1*
X907957D2*
X964706D1*
X996440D2*
X1017385D1*
X1026927D2*
X1053291D1*
X1059275D2*
X1084442D1*
X1115750D2*
X1153710D1*
X541126Y899642D2*
X580211D1*
X611043D2*
X667306D1*
X676283D2*
X697228D1*
X733222D2*
X781322D1*
X908894D2*
X964076D1*
X996440D2*
X1017385D1*
X1023369D2*
X1081292D1*
X1112639D2*
X1150626D1*
X543859Y896650D2*
X582806D1*
X614162D2*
X670299D1*
X676283D2*
X697228D1*
X735158D2*
X785248D1*
X909371D2*
X963741D1*
X996440D2*
X1078390D1*
X1109500D2*
X1147578D1*
X546845Y893658D2*
X584648D1*
X616953D2*
X697228D1*
X737221D2*
X789571D1*
X904923D2*
X969511D1*
X996440D2*
X1075535D1*
X1106969D2*
X1144556D1*
X550189Y890666D2*
X585753D1*
X619808D2*
X697228D1*
X739536D2*
X794488D1*
X900296D2*
X972145D1*
X996440D2*
X1072543D1*
X1105336D2*
X1141456D1*
X553707Y887674D2*
X592503D1*
X622942D2*
X697228D1*
X741963D2*
X800669D1*
X894607D2*
X975157D1*
X996440D2*
X1069319D1*
X1098173D2*
X1138178D1*
X557187Y884682D2*
X595486D1*
X626290D2*
X697228D1*
X744579D2*
X809044D1*
X886694D2*
X978164D1*
X996440D2*
X1065916D1*
X1095550D2*
X1134762D1*
X560304Y881690D2*
X598867D1*
X629589D2*
X697228D1*
X747741D2*
X819818D1*
X875866D2*
X980758D1*
X996440D2*
X1062600D1*
X1092632D2*
X1131530D1*
X563095Y878698D2*
X602049D1*
X632764D2*
X697228D1*
X751292D2*
X831780D1*
X863114D2*
X982590D1*
X996440D2*
X1059423D1*
X1089877D2*
X1128625D1*
X565949Y875705D2*
X604898D1*
X635927D2*
X697228D1*
X754572D2*
X843842D1*
X849826D2*
X983624D1*
X996440D2*
X1056343D1*
X1087408D2*
X1125879D1*
X569084Y872713D2*
X607701D1*
X639121D2*
X697228D1*
X757490D2*
X984123D1*
X996440D2*
X1053302D1*
X1084841D2*
X1122888D1*
X572432Y869721D2*
X610555D1*
X642064D2*
X658330D1*
X667643D2*
X697228D1*
X760510D2*
X936135D1*
X945676D2*
X984337D1*
X996440D2*
X1023495D1*
X1032346D2*
X1050202D1*
X1081918D2*
X1119542D1*
X575719Y866729D2*
X613390D1*
X644518D2*
X658330D1*
X670877D2*
X697228D1*
X764053D2*
X932390D1*
X948947D2*
X984423D1*
X996440D2*
X1021003D1*
X1032357D2*
X1046928D1*
X1078866D2*
X1116024D1*
X578788Y863737D2*
X616089D1*
X645554D2*
X658330D1*
X673428D2*
X697228D1*
X768140D2*
X928518D1*
X952275D2*
X984455D1*
X996440D2*
X1019227D1*
X1032471D2*
X1043600D1*
X1075896D2*
X1112544D1*
X581594Y860745D2*
X618828D1*
X652346D2*
X658330D1*
X675260D2*
X697228D1*
X772327D2*
X924597D1*
X955318D2*
X984466D1*
X996440D2*
X1018217D1*
X1032934D2*
X1040575D1*
X1073043D2*
X1109427D1*
X584293Y857753D2*
X622029D1*
X652346D2*
X658330D1*
X675803D2*
X697228D1*
X776558D2*
X920365D1*
X958064D2*
X984470D1*
X996440D2*
X1017728D1*
X1033957D2*
X1037906D1*
X1070085D2*
X1106636D1*
X587336Y854761D2*
X625485D1*
X676085D2*
X697228D1*
X781518D2*
X915400D1*
X960812D2*
X984471D1*
X996440D2*
X1017517D1*
X1035338D2*
D3*
X1066714D2*
X1103782D1*
X590768Y851768D2*
X628293D1*
X676208D2*
X697228D1*
X787884D2*
X909233D1*
X963654D2*
X984472D1*
X996440D2*
X1017434D1*
X1063234D2*
X1100647D1*
X594164Y848776D2*
X630100D1*
X676256D2*
X697228D1*
X795454D2*
X901978D1*
X966572D2*
X984472D1*
X996440D2*
X1017402D1*
X1060084D2*
X1097299D1*
X597305Y845784D2*
X637385D1*
X676273D2*
X697228D1*
X803636D2*
X894056D1*
X969531D2*
X984472D1*
X996440D2*
X1017391D1*
X1057187D2*
X1094024D1*
X600498Y842792D2*
X639893D1*
X676280D2*
X697228D1*
X813735D2*
X884622D1*
X972511D2*
X984472D1*
X996440D2*
X1017387D1*
X1054122D2*
X1091070D1*
X603764Y839800D2*
X642417D1*
X676282D2*
X697228D1*
X827579D2*
X872546D1*
X975498D2*
X984472D1*
X996440D2*
X1017386D1*
X1050744D2*
X1088758D1*
X606763Y836808D2*
X644338D1*
X676282D2*
X697228D1*
X843842D2*
X858802D1*
X978488D2*
X984472D1*
X996440D2*
X1017385D1*
X1047213D2*
X1087275D1*
X609496Y833816D2*
X645526D1*
X676283D2*
X697228D1*
X996440D2*
X1017385D1*
X1043728D2*
X1080220D1*
X612243Y830824D2*
X652346D1*
X676283D2*
X697228D1*
X996440D2*
X1017385D1*
X1040597D2*
X1077934D1*
X615169Y827831D2*
X654631D1*
X676283D2*
X697228D1*
X996440D2*
X1017385D1*
X1037712D2*
X1075281D1*
X618275Y824839D2*
X657285D1*
X676283D2*
X697228D1*
X996440D2*
X1017385D1*
X1034581D2*
X1072308D1*
X621392Y821847D2*
X660238D1*
X676283D2*
X697228D1*
X996440D2*
X1017385D1*
X1031132D2*
X1069248D1*
X624369Y818855D2*
X663117D1*
X676283D2*
X1017385D1*
X1027900D2*
X1066294D1*
X627506Y815863D2*
X665417D1*
X676283D2*
X1017385D1*
X1025397D2*
X1063177D1*
X630924Y812871D2*
X667306D1*
X676283D2*
X1017385D1*
X1023369D2*
X1059855D1*
X634486Y809879D2*
X1056571D1*
X638072Y806887D2*
X1053320D1*
X641470Y803894D2*
X1049973D1*
X644587Y800902D2*
X1046623D1*
X647398Y797910D2*
X686054D1*
X745689D2*
X775725D1*
X918543D2*
X948566D1*
X1008307D2*
X1043660D1*
X650011Y794918D2*
X688585D1*
X746921D2*
X776943D1*
X915272D2*
X945574D1*
X1005024D2*
X1041173D1*
X652780Y791926D2*
X691741D1*
X748842D2*
X779944D1*
X911956D2*
X942582D1*
X1001603D2*
X1038665D1*
X655878Y788934D2*
X694745D1*
X751086D2*
X783201D1*
X909007D2*
X939590D1*
X998272D2*
X1035597D1*
X659212Y785942D2*
X697288D1*
X745625D2*
X786248D1*
X906524D2*
X946135D1*
X995097D2*
X1032099D1*
X662505Y782949D2*
X699745D1*
X741118D2*
X789091D1*
X904018D2*
X951886D1*
X992011D2*
X1028844D1*
X665678Y779957D2*
X702557D1*
X737572D2*
X792036D1*
X900939D2*
X956795D1*
X988974D2*
X1025948D1*
X668852Y776965D2*
X705729D1*
X738479D2*
X795027D1*
X897348D2*
X954494D1*
X985880D2*
X1023025D1*
X672151Y773973D2*
X708949D1*
X740685D2*
X797816D1*
X893840D2*
X951592D1*
X982693D2*
X1019783D1*
X675486Y770981D2*
X712173D1*
X742688D2*
X800348D1*
X890804D2*
X948301D1*
X979542D2*
X1016242D1*
X678447Y767989D2*
X715512D1*
X744069D2*
X802361D1*
X888509D2*
X944921D1*
X976551D2*
X1012880D1*
X681006Y764997D2*
X718881D1*
X751086D2*
X803902D1*
X886782D2*
X941844D1*
X973409D2*
X1010000D1*
X683609Y762005D2*
X722030D1*
X753720D2*
X791646D1*
X899034D2*
X939068D1*
X969989D2*
X1007238D1*
X686546Y759012D2*
X725069D1*
X756731D2*
X778015D1*
X912661D2*
X936220D1*
X966427D2*
X1004422D1*
X689614Y756020D2*
X728247D1*
X759762D2*
X780893D1*
X910143D2*
X933087D1*
X962840D2*
X1002086D1*
X692680Y753028D2*
X731428D1*
X762579D2*
X783502D1*
X908009D2*
X929740D1*
X959442D2*
X1000551D1*
X695809Y750036D2*
X734541D1*
X765289D2*
X785777D1*
X906289D2*
X926441D1*
X956325D2*
X993448D1*
X699114Y747044D2*
X737688D1*
X768267D2*
X788002D1*
X905028D2*
X923267D1*
X953514D2*
X990940D1*
X702641Y744052D2*
X741000D1*
X771608D2*
X790460D1*
X904243D2*
X920092D1*
X950901D2*
X988416D1*
X706245Y741060D2*
X744529D1*
X775136D2*
X793081D1*
X897700D2*
X916781D1*
X948132D2*
X986495D1*
X709762Y738068D2*
X748135D1*
X778709D2*
X795659D1*
X896089D2*
X913352D1*
X945034D2*
X985308D1*
X712894Y735075D2*
X751640D1*
X782115D2*
X798158D1*
X893968D2*
X910115D1*
X941700D2*
X978488D1*
X715691Y732083D2*
X754656D1*
X785334D2*
X800686D1*
X891516D2*
X907209D1*
X938430D2*
X976190D1*
X718547Y729091D2*
X756943D1*
X788515D2*
X803095D1*
X889110D2*
X904462D1*
X935478D2*
X973432D1*
X721670Y726099D2*
X758500D1*
X791728D2*
X805180D1*
X887006D2*
X901494D1*
X933167D2*
X970089D1*
X724925Y723107D2*
X759423D1*
X794789D2*
X807083D1*
X885098D2*
X898336D1*
X931684D2*
X966430D1*
X727948Y720115D2*
X766047D1*
X797415D2*
X809105D1*
X883079D2*
X895358D1*
X924629D2*
X963183D1*
X730787Y717123D2*
X768680D1*
X799924D2*
X811469D1*
X880800D2*
X892455D1*
X922446D2*
X960525D1*
X733900Y714131D2*
X771704D1*
X802772D2*
X814039D1*
X878419D2*
X889162D1*
X920071D2*
X957935D1*
X737339Y711138D2*
X774828D1*
X805954D2*
X816507D1*
X876096D2*
X885569D1*
X917434D2*
X954832D1*
X740549Y708146D2*
X777921D1*
X809172D2*
X818713D1*
X873783D2*
X882362D1*
X914436D2*
X951319D1*
X743049Y705154D2*
X780967D1*
X812312D2*
X820822D1*
X871431D2*
X879725D1*
X911330D2*
X948059D1*
X745297Y702162D2*
X783995D1*
X815462D2*
X822996D1*
X868855D2*
X877143D1*
X908245D2*
X945173D1*
X748103Y699170D2*
X787091D1*
X818651D2*
X825280D1*
X865933D2*
X874049D1*
X905108D2*
X942343D1*
X751334Y696178D2*
X790351D1*
X821592D2*
X827824D1*
X862550D2*
X870588D1*
X901800D2*
X939377D1*
X754035Y693186D2*
X793564D1*
X824046D2*
X830735D1*
X858802D2*
X867483D1*
X898272D2*
X936171D1*
X755795Y690194D2*
X796127D1*
X825082D2*
X834112D1*
X861795D2*
X864787D1*
X894667D2*
X932860D1*
X763054Y687201D2*
X797773D1*
X831873D2*
X837858D1*
X855810D2*
D3*
X891150D2*
X929735D1*
X765128Y684209D2*
X804944D1*
X831873D2*
X834865D1*
X888018D2*
X926704D1*
X767991Y681217D2*
X807018D1*
X885221D2*
X923529D1*
X771229Y678225D2*
X809880D1*
X882365D2*
X920373D1*
X774276Y675233D2*
X813096D1*
X879242D2*
X917481D1*
X777133Y672241D2*
X815921D1*
X875987D2*
X915197D1*
X780184Y669249D2*
X818222D1*
X872964D2*
X913725D1*
X783557Y666257D2*
X819169D1*
X870137D2*
X906677D1*
X787086Y663264D2*
X825889D1*
X867118D2*
X904145D1*
X790570Y660272D2*
X828523D1*
X863942D2*
X901400D1*
X793701Y657280D2*
X831546D1*
X860975D2*
X898611D1*
X796586Y654288D2*
X834672D1*
X858266D2*
X895558D1*
X799716Y651296D2*
X837773D1*
X855561D2*
X892173D1*
X803174Y648304D2*
X840850D1*
X852818D2*
X888648D1*
X806480Y645312D2*
X885253D1*
X809257Y642320D2*
X882408D1*
X811840Y639327D2*
X879963D1*
X814709Y636335D2*
X877253D1*
X817810Y633343D2*
X874172D1*
X820745Y630351D2*
X871102D1*
X823458Y627359D2*
X868267D1*
X826282Y624367D2*
X865549D1*
X829386Y621375D2*
X862579D1*
X832581Y618383D2*
X859325D1*
X835407Y615390D2*
X856055D1*
X837858Y612398D2*
X852818D1*
X843842Y1318540D2*
X839927Y1315548D1*
X835946Y1312556D1*
X831987Y1309564D1*
X828614Y1306572D1*
X825919Y1303579D1*
X823404Y1300587D1*
X820571Y1297595D1*
X817403Y1294603D1*
X814310Y1291611D1*
X811675Y1288619D1*
X809817Y1285627D1*
X808706Y1282635D1*
X807936Y1279642D1*
X798960D1*
X797697Y1276650D1*
X795923Y1273658D1*
X793412Y1270666D1*
X790276Y1267674D1*
X786842Y1264682D1*
X783393Y1261690D1*
X780275Y1258698D1*
X777395Y1255705D1*
X774266Y1252713D1*
X770797Y1249721D1*
X767398Y1246729D1*
X764345Y1243737D1*
X761403Y1240745D1*
X758285Y1237753D1*
X754772Y1234761D1*
X751041Y1231768D1*
X747766Y1228776D1*
X745110Y1225784D1*
X742609Y1222792D1*
X739781Y1219800D1*
X736603Y1216808D1*
X733382Y1213816D1*
X730156Y1210824D1*
X726818Y1207831D1*
X723460Y1204839D1*
X720405Y1201847D1*
X717653Y1198855D1*
X714904Y1195863D1*
X712050Y1192871D1*
X709039Y1189879D1*
X705791Y1186887D1*
X702383Y1183894D1*
X699057Y1180902D1*
X695871Y1177910D1*
X692704Y1174918D1*
X689485Y1171926D1*
X686332Y1168934D1*
X683430Y1165942D1*
X680574Y1162949D1*
X677582Y1159957D1*
X674370Y1156965D1*
X671061Y1153973D1*
X668021Y1150981D1*
X665179Y1147989D1*
X662150Y1144997D1*
X658875Y1142005D1*
X655624Y1139012D1*
X652487Y1136020D1*
X649512Y1133028D1*
X646752Y1130036D1*
X643988Y1127044D1*
X640777Y1124052D1*
X637318Y1121060D1*
X634509Y1118068D1*
X632702Y1115075D1*
X631401Y1112083D1*
X625417D1*
X623469Y1109091D1*
X621094Y1106099D1*
X618960Y1103107D1*
X617512Y1100115D1*
X616440Y1097123D1*
X610456D1*
Y1094131D1*
Y1091138D1*
X604472D1*
Y1088146D1*
Y1085154D1*
X598488D1*
X596414Y1082162D1*
X593551Y1079170D1*
X590313Y1076178D1*
X587277Y1073186D1*
X584514Y1070194D1*
X581739Y1067201D1*
X578702Y1064209D1*
X575223Y1061217D1*
X571505Y1058225D1*
X568235Y1055233D1*
X565581Y1052241D1*
X563081Y1049249D1*
X560241Y1046257D1*
X556970Y1043264D1*
X553473Y1040272D1*
X549912Y1037280D1*
X546523Y1034288D1*
X543399Y1031296D1*
X540494Y1028304D1*
X537617Y1025312D1*
X534607Y1022320D1*
X531735Y1019327D1*
X528982Y1016335D1*
X525995Y1013343D1*
X522833Y1010351D1*
X519858Y1007359D1*
X517040Y1004367D1*
X513936Y1001375D1*
X510477Y998383D1*
X507081Y995390D1*
X504029Y992398D1*
X501088Y989406D1*
X497970Y986414D1*
X494457Y983422D1*
X490726Y980430D1*
X487462Y977438D1*
X484923Y974446D1*
X482932Y971453D1*
X481424Y968461D1*
X480298Y965469D1*
X480657Y962477D1*
X481539Y959485D1*
X482872Y956493D1*
X484831Y953501D1*
X487677Y950509D1*
X491176Y947516D1*
X494673Y944524D1*
X497892Y941532D1*
X500861Y938540D1*
X503868Y935548D1*
X507258Y932556D1*
X510745Y929564D1*
X513897Y926572D1*
X516795Y923579D1*
X519838Y920587D1*
X523029Y917595D1*
X526007Y914603D1*
X528822Y911611D1*
X531840Y908619D1*
X535099Y905627D1*
X538255Y902635D1*
X541126Y899642D1*
X543859Y896650D1*
X546845Y893658D1*
X550189Y890666D1*
X553707Y887674D1*
X557187Y884682D1*
X560304Y881690D1*
X563095Y878698D1*
X565949Y875705D1*
X569084Y872713D1*
X572432Y869721D1*
X575719Y866729D1*
X578788Y863737D1*
X581594Y860745D1*
X584293Y857753D1*
X587336Y854761D1*
X590768Y851768D1*
X594164Y848776D1*
X597305Y845784D1*
X600498Y842792D1*
X603764Y839800D1*
X606763Y836808D1*
X609496Y833816D1*
X612243Y830824D1*
X615169Y827831D1*
X618275Y824839D1*
X621392Y821847D1*
X624369Y818855D1*
X627506Y815863D1*
X630924Y812871D1*
X634486Y809879D1*
X638072Y806887D1*
X641470Y803894D1*
X644587Y800902D1*
X647398Y797910D1*
X650011Y794918D1*
X652780Y791926D1*
X655878Y788934D1*
X659212Y785942D1*
X662505Y782949D1*
X665678Y779957D1*
X668852Y776965D1*
X672151Y773973D1*
X675486Y770981D1*
X678447Y767989D1*
X681006Y764997D1*
X683609Y762005D1*
X686546Y759012D1*
X689614Y756020D1*
X692680Y753028D1*
X695809Y750036D1*
X699114Y747044D1*
X702641Y744052D1*
X706245Y741060D1*
X709762Y738068D1*
X712894Y735075D1*
X715691Y732083D1*
X718547Y729091D1*
X721670Y726099D1*
X724925Y723107D1*
X727948Y720115D1*
X730787Y717123D1*
X733900Y714131D1*
X737339Y711138D1*
X740549Y708146D1*
X743049Y705154D1*
X745297Y702162D1*
X748103Y699170D1*
X751334Y696178D1*
X754035Y693186D1*
X755795Y690194D1*
X757070Y687201D1*
X763054D1*
X765128Y684209D1*
X767991Y681217D1*
X771229Y678225D1*
X774276Y675233D1*
X777133Y672241D1*
X780184Y669249D1*
X783557Y666257D1*
X787086Y663264D1*
X790570Y660272D1*
X793701Y657280D1*
X796586Y654288D1*
X799716Y651296D1*
X803174Y648304D1*
X806480Y645312D1*
X809257Y642320D1*
X811840Y639327D1*
X814709Y636335D1*
X817810Y633343D1*
X820745Y630351D1*
X823458Y627359D1*
X826282Y624367D1*
X829386Y621375D1*
X832581Y618383D1*
X835407Y615390D1*
X837858Y612398D1*
X846834Y1318540D2*
X851310Y1315548D1*
X855439Y1312556D1*
X859202Y1309564D1*
X862438Y1306572D1*
X865274Y1303579D1*
X868145Y1300587D1*
X871285Y1297595D1*
X874636Y1294603D1*
X877912Y1291611D1*
X880866Y1288619D1*
X883178Y1285627D1*
X884661Y1282635D1*
X885732Y1279642D1*
X891716D1*
X894350Y1276650D1*
X897361Y1273658D1*
X900369Y1270666D1*
X902964Y1267674D1*
X904806Y1264682D1*
X905910Y1261690D1*
X906677Y1258698D1*
X912661D1*
X915295Y1255705D1*
X918306Y1252713D1*
X921337Y1249721D1*
X924153Y1246729D1*
X926864Y1243737D1*
X929842Y1240745D1*
X933183Y1237753D1*
X936711Y1234761D1*
X940284Y1231768D1*
X943689Y1228776D1*
X946909Y1225784D1*
X950090Y1222792D1*
X953314Y1219800D1*
X956469Y1216808D1*
X959371Y1213816D1*
X962216Y1210824D1*
X965114Y1207831D1*
X968050Y1204839D1*
X971024Y1201847D1*
X974014Y1198855D1*
X977089Y1195863D1*
X980270Y1192871D1*
X983407Y1189879D1*
X986280Y1186887D1*
X988913Y1183894D1*
X991041Y1180902D1*
X992433Y1177910D1*
X993448Y1174918D1*
X999432D1*
X1002078Y1171926D1*
X1005195Y1168934D1*
X1008595Y1165942D1*
X1012023Y1162949D1*
X1015120Y1159957D1*
X1017891Y1156965D1*
X1020649Y1153973D1*
X1023506Y1150981D1*
X1026519Y1147989D1*
X1029755Y1144997D1*
X1033070Y1142005D1*
X1036108Y1139012D1*
X1038853Y1136020D1*
X1041600Y1133028D1*
X1044453Y1130036D1*
X1047464Y1127044D1*
X1050688Y1124052D1*
X1053887Y1121060D1*
X1056445Y1118068D1*
X1058089Y1115075D1*
X1059275Y1112083D1*
X1065259D1*
X1067333Y1109091D1*
X1070195Y1106099D1*
X1073434Y1103107D1*
X1076481Y1100115D1*
X1079338Y1097123D1*
X1082377Y1094131D1*
X1085656Y1091138D1*
X1088909Y1088146D1*
X1092058Y1085154D1*
X1095127Y1082162D1*
X1098140Y1079170D1*
X1101052Y1076178D1*
X1103773Y1073186D1*
X1106431Y1070194D1*
X1109385Y1067201D1*
X1112716Y1064209D1*
X1116241Y1061217D1*
X1119812Y1058225D1*
X1123206Y1055233D1*
X1126332Y1052241D1*
X1129236Y1049249D1*
X1132125Y1046257D1*
X1135229Y1043264D1*
X1138377Y1040272D1*
X1141477Y1037280D1*
X1144620Y1034288D1*
X1147918Y1031296D1*
X1151353Y1028304D1*
X1154683Y1025312D1*
X1157853Y1022320D1*
X1160841Y1019327D1*
X1163583Y1016335D1*
X1166161Y1013343D1*
X1168832Y1010351D1*
X1171736Y1007359D1*
X1174923Y1004367D1*
X1178299Y1001375D1*
X1181494Y998383D1*
X1184171Y995390D1*
X1186046Y992398D1*
X1187163Y989406D1*
X1187936Y986414D1*
X1196913D1*
X1198884Y983422D1*
X1201468Y980430D1*
X1204348Y977438D1*
X1207122Y974446D1*
X1209345Y971453D1*
X1210956Y968461D1*
X1211317Y965469D1*
X1211344Y962477D1*
X1210033Y959485D1*
X1208043Y956493D1*
X1205542Y953501D1*
X1202751Y950509D1*
X1199751Y947516D1*
X1196514Y944524D1*
X1193186Y941532D1*
X1190054Y938540D1*
X1187044Y935548D1*
X1184077Y932556D1*
X1181666Y929564D1*
X1180098Y926572D1*
X1178960Y923579D1*
X1172976D1*
X1170702Y920587D1*
X1168142Y917595D1*
X1165445Y914603D1*
X1162732Y911611D1*
X1159922Y908619D1*
X1156848Y905627D1*
X1153710Y902635D1*
X1150626Y899642D1*
X1147578Y896650D1*
X1144556Y893658D1*
X1141456Y890666D1*
X1138178Y887674D1*
X1134762Y884682D1*
X1131530Y881690D1*
X1128625Y878698D1*
X1125879Y875705D1*
X1122888Y872713D1*
X1119542Y869721D1*
X1116024Y866729D1*
X1112544Y863737D1*
X1109427Y860745D1*
X1106636Y857753D1*
X1103782Y854761D1*
X1100647Y851768D1*
X1097299Y848776D1*
X1094024Y845784D1*
X1091070Y842792D1*
X1088758Y839800D1*
X1087275Y836808D1*
X1086204Y833816D1*
X1080220D1*
X1077934Y830824D1*
X1075281Y827831D1*
X1072308Y824839D1*
X1069248Y821847D1*
X1066294Y818855D1*
X1063177Y815863D1*
X1059855Y812871D1*
X1056571Y809879D1*
X1053320Y806887D1*
X1049973Y803894D1*
X1046623Y800902D1*
X1043660Y797910D1*
X1041173Y794918D1*
X1038665Y791926D1*
X1035597Y788934D1*
X1032099Y785942D1*
X1028844Y782949D1*
X1025948Y779957D1*
X1023025Y776965D1*
X1019783Y773973D1*
X1016242Y770981D1*
X1012880Y767989D1*
X1010000Y764997D1*
X1007238Y762005D1*
X1004422Y759012D1*
X1002086Y756020D1*
X1000551Y753028D1*
X999432Y750036D1*
X993448D1*
X990940Y747044D1*
X988416Y744052D1*
X986495Y741060D1*
X985308Y738068D1*
X984472Y735075D1*
X978488D1*
X976190Y732083D1*
X973432Y729091D1*
X970089Y726099D1*
X966430Y723107D1*
X963183Y720115D1*
X960525Y717123D1*
X957935Y714131D1*
X954832Y711138D1*
X951319Y708146D1*
X948059Y705154D1*
X945173Y702162D1*
X942343Y699170D1*
X939377Y696178D1*
X936171Y693186D1*
X932860Y690194D1*
X929735Y687201D1*
X926704Y684209D1*
X923529Y681217D1*
X920373Y678225D1*
X917481Y675233D1*
X915197Y672241D1*
X913725Y669249D1*
X912661Y666257D1*
X906677D1*
X904145Y663264D1*
X901400Y660272D1*
X898611Y657280D1*
X895558Y654288D1*
X892173Y651296D1*
X888648Y648304D1*
X885253Y645312D1*
X882408Y642320D1*
X879963Y639327D1*
X877253Y636335D1*
X874172Y633343D1*
X871102Y630351D1*
X868267Y627359D1*
X865549Y624367D1*
X862579Y621375D1*
X859325Y618383D1*
X856055Y615390D1*
X852818Y612398D1*
X849826Y1285627D2*
X844790Y1282635D1*
X840500Y1279642D1*
X836851Y1276650D1*
X833558Y1273658D1*
X830451Y1270666D1*
X827408Y1267674D1*
X824392Y1264682D1*
X821296Y1261690D1*
X818019Y1258698D1*
X814604Y1255705D1*
X811372Y1252713D1*
X808456Y1249721D1*
X805616Y1246729D1*
X802349Y1243737D1*
X798668Y1240745D1*
X795111Y1237753D1*
X791993Y1234761D1*
X789601Y1231768D1*
X788082Y1228776D1*
X786991Y1225784D1*
X781007D1*
X779060Y1222792D1*
X776684Y1219800D1*
X774550Y1216808D1*
X773102Y1213816D1*
X772031Y1210824D1*
X766047D1*
Y1207831D1*
Y1204839D1*
X760062D1*
X758337Y1201847D1*
X755833Y1198855D1*
X752675Y1195863D1*
X749606Y1192871D1*
X747029Y1189879D1*
X745945Y1186887D1*
X745102Y1183894D1*
X739117D1*
X736484Y1180902D1*
X733472Y1177910D1*
X730464Y1174918D1*
X727869Y1171926D1*
X726027Y1168934D1*
X724923Y1165942D1*
X724157Y1162949D1*
X715180D1*
X713209Y1159957D1*
X710625Y1156965D1*
X707734Y1153973D1*
X704843Y1150981D1*
X702122Y1147989D1*
X699543Y1144997D1*
X696787Y1142005D1*
X693717Y1139012D1*
X690594Y1136020D1*
X688069Y1133028D1*
X686438Y1130036D1*
X685259Y1127044D1*
X846834Y1285627D2*
X849826Y1282635D1*
X852818Y1279642D1*
X855810Y1276650D1*
X858802Y1273658D1*
X861783Y1270666D1*
X864682Y1267674D1*
X867409Y1264682D1*
X870160Y1261690D1*
X873377Y1258698D1*
X876950Y1255705D1*
X880237Y1252713D1*
X883146Y1249721D1*
X886062Y1246729D1*
X889223Y1243737D1*
X892583Y1240745D1*
X895862Y1237753D1*
X898818Y1234761D1*
X901130Y1231768D1*
X902613Y1228776D1*
X903684Y1225784D1*
X909669D1*
X912200Y1222792D1*
X914945Y1219800D1*
X917734Y1216808D1*
X920764Y1213816D1*
X923962Y1210824D1*
X926935Y1207831D1*
X929659Y1204839D1*
X932403Y1201847D1*
X935338Y1198855D1*
X938538Y1195863D1*
X941931Y1192871D1*
X945243Y1189879D1*
X948419Y1186887D1*
X951498Y1183894D1*
X954539Y1180902D1*
X957640Y1177910D1*
X960925Y1174918D1*
X964348Y1171926D1*
X967667Y1168934D1*
X970761Y1165942D1*
X973653Y1162949D1*
X976537Y1159957D1*
X979639Y1156965D1*
X982787Y1153973D1*
X985875Y1150981D1*
X988924Y1147989D1*
X991947Y1144997D1*
X995035Y1142005D1*
X998196Y1139012D1*
X1001126Y1136020D1*
X1003574Y1133028D1*
X1004610Y1130036D1*
X1005417Y1127044D1*
X834865Y1240745D2*
X825889Y1237753D2*
X823918Y1234761D1*
X821322Y1231768D1*
X818326Y1228776D1*
X815041Y1225784D1*
X811510Y1222792D1*
X807900Y1219800D1*
X804380Y1216808D1*
X801247Y1213816D1*
X798462Y1210824D1*
X795699Y1207831D1*
X792852Y1204839D1*
X789932Y1201847D1*
X786972Y1198855D1*
X783992Y1195863D1*
X780993Y1192871D1*
X777909Y1189879D1*
X774653Y1186887D1*
X771441Y1183894D1*
X768879Y1180902D1*
X767233Y1177910D1*
X766047Y1174918D1*
X760062D1*
X758115Y1171926D1*
X755739Y1168934D1*
X753605Y1165942D1*
X752158Y1162949D1*
X751086Y1159957D1*
X745102D1*
X742468Y1156965D1*
X739440Y1153973D1*
X736291Y1150981D1*
X733133Y1147989D1*
X739775Y1144997D1*
X745786Y1142005D1*
X751086Y1139012D1*
X748094Y1136020D1*
X745102Y1133028D1*
X742110Y1130036D1*
X739117Y1127044D1*
X828881Y1237753D2*
X827858Y1234761D1*
X826960Y1231768D1*
X826346Y1228776D1*
X825889Y1225784D1*
X819905D1*
X818756Y1222792D1*
X817365Y1219800D1*
X815583Y1216808D1*
X813319Y1213816D1*
X810789Y1210824D1*
X808334Y1207831D1*
X806122Y1204839D1*
X803921Y1201847D1*
X801471Y1198855D1*
X798865Y1195863D1*
X796382Y1192871D1*
X794171Y1189879D1*
X792071Y1186887D1*
X789990Y1183894D1*
X787994Y1180902D1*
X785897Y1177910D1*
X783482Y1174918D1*
X780804Y1171926D1*
X778015Y1168934D1*
X804944Y1165942D1*
Y1162949D1*
Y1159957D1*
Y1156965D1*
X798960D1*
X796887Y1153973D1*
X794024Y1150981D1*
X790809Y1147989D1*
X787983Y1144997D1*
X785682Y1142005D1*
X784736Y1139012D1*
X783999Y1136020D1*
X778015D1*
Y1133028D1*
Y1130036D1*
Y1127044D1*
X861795Y1237753D2*
X862818Y1234761D1*
X863716Y1231768D1*
X864330Y1228776D1*
X864787Y1225784D1*
X870771D1*
X872817Y1222792D1*
X874598Y1219800D1*
X875737Y1216808D1*
X876355Y1213816D1*
X876755Y1210824D1*
X882739D1*
X883763Y1207831D1*
X884661Y1204839D1*
X885274Y1201847D1*
X885732Y1198855D1*
X891716D1*
X893201Y1195863D1*
X894834Y1192871D1*
X896186Y1189879D1*
X897064Y1186887D1*
X897700Y1183894D1*
X903684D1*
X905193Y1180902D1*
X907054Y1177910D1*
X909330Y1174918D1*
X912255Y1171926D1*
X915653Y1168934D1*
X885732Y1165942D1*
X886480Y1162949D1*
X888702Y1159957D1*
X891617Y1156965D1*
X894938Y1153973D1*
X898337Y1150981D1*
X901423Y1147989D1*
X904192Y1144997D1*
X906937Y1142005D1*
X909665Y1139012D1*
X912087Y1136020D1*
X913843Y1133028D1*
X914908Y1130036D1*
X915653Y1127044D1*
X864787Y1234761D2*
X869721Y1231768D1*
X873721Y1228776D1*
X876952Y1225784D1*
X879999Y1222792D1*
X883212Y1219800D1*
X886589Y1216808D1*
X889898Y1213816D1*
X893065Y1210824D1*
X896136Y1207831D1*
X899066Y1204839D1*
X901790Y1201847D1*
X904365Y1198855D1*
X907119Y1195863D1*
X910211Y1192871D1*
X913555Y1189879D1*
X916941Y1186887D1*
X920390Y1183894D1*
X923899Y1180902D1*
X927261Y1177910D1*
X930455Y1174918D1*
X933542Y1171926D1*
X936574Y1168934D1*
X939581Y1165942D1*
X942591Y1162949D1*
X945678Y1159957D1*
X948936Y1156965D1*
X952148Y1153973D1*
X954710Y1150981D1*
X956356Y1147989D1*
X957543Y1144997D1*
X939590Y1142005D1*
X942919Y1139012D1*
X946154Y1136020D1*
X948723Y1133028D1*
X950371Y1130036D1*
X951558Y1127044D1*
X670299Y1118068D2*
X667894Y1115075D1*
X666133Y1112083D1*
X665063Y1109091D1*
X664314Y1106099D1*
X658330D1*
X656045Y1103107D1*
X653380Y1100115D1*
X650313Y1097123D1*
X646989Y1094131D1*
X643792Y1091138D1*
X640901Y1088146D1*
X638160Y1085154D1*
X635171Y1082162D1*
X631826Y1079170D1*
X628308Y1076178D1*
X624828Y1073186D1*
X621698Y1070194D1*
X618814Y1067201D1*
X615684Y1064209D1*
X612214Y1061217D1*
X608815Y1058225D1*
X605762Y1055233D1*
X602843Y1052241D1*
X599936Y1049249D1*
X597196Y1046257D1*
X594987Y1043264D1*
X593549Y1040272D1*
X592503Y1037280D1*
X586519D1*
X584011Y1034288D1*
X581487Y1031296D1*
X579566Y1028304D1*
X578379Y1025312D1*
X577543Y1022320D1*
X571558D1*
Y1019327D1*
Y1016335D1*
X565574D1*
X562940Y1013343D1*
X559917Y1010351D1*
X556793Y1007359D1*
X553688Y1004367D1*
X550549Y1001375D1*
X547268Y998383D1*
X544046Y995390D1*
X541479Y992398D1*
X539832Y989406D1*
X538645Y986414D1*
X532661D1*
X530387Y983422D1*
X527816Y980430D1*
X525036Y977438D1*
X522153Y974446D1*
X519423Y971453D1*
X516960Y968461D1*
X516028Y965469D1*
X516610Y962477D1*
X518616Y959485D1*
X521080Y956493D1*
X523847Y953501D1*
X526837Y950509D1*
X530069Y947516D1*
X533384Y944524D1*
X536422Y941532D1*
X539179Y938540D1*
X542032Y935548D1*
X545243Y932556D1*
X548772Y929564D1*
X552129Y926572D1*
X555007Y923579D1*
X557769Y920587D1*
X560584Y917595D1*
X562921Y914603D1*
X564455Y911611D1*
X565574Y908619D1*
X571558D1*
X574192Y905627D1*
X577204Y902635D1*
X580211Y899642D1*
X582806Y896650D1*
X584648Y893658D1*
X585753Y890666D1*
X586519Y887674D1*
X592503D1*
X595486Y884682D1*
X598867Y881690D1*
X602049Y878698D1*
X604898Y875705D1*
X607701Y872713D1*
X610555Y869721D1*
X613390Y866729D1*
X616089Y863737D1*
X618828Y860745D1*
X622029Y857753D1*
X625485Y854761D1*
X628293Y851768D1*
X630100Y848776D1*
X631401Y845784D1*
X637385D1*
X639893Y842792D1*
X642417Y839800D1*
X644338Y836808D1*
X645526Y833816D1*
X646362Y830824D1*
X652346D1*
X654631Y827831D1*
X657285Y824839D1*
X660238Y821847D1*
X663117Y818855D1*
X665417Y815863D1*
X667306Y812871D1*
X676283Y1118068D2*
Y1115075D1*
Y1112083D1*
Y1109091D1*
Y1106099D1*
Y1103107D1*
Y1100115D1*
Y1097123D1*
Y1094131D1*
Y1091138D1*
Y1088146D1*
Y1085154D1*
Y1082162D1*
Y1079170D1*
Y1076178D1*
X676259Y1073186D1*
X676037Y1070194D1*
X675511Y1067201D1*
X673299Y1064209D1*
X670428Y1061217D1*
X667306Y1058225D1*
X1017385Y1118068D2*
Y1115075D1*
Y1112083D1*
Y1109091D1*
Y1106099D1*
Y1103107D1*
Y1100115D1*
Y1097123D1*
Y1094131D1*
Y1091138D1*
Y1088146D1*
Y1085154D1*
Y1082162D1*
Y1079170D1*
X1017397Y1076178D1*
X1017502Y1073186D1*
X1017907Y1070194D1*
X1018852Y1067201D1*
X1020551Y1064209D1*
X1023164Y1061217D1*
X1026362Y1058225D1*
X1020377Y1118068D2*
X1023021Y1115075D1*
X1025655Y1112083D1*
X1028578Y1109091D1*
X1031720Y1106099D1*
X1034691Y1103107D1*
X1037592Y1100115D1*
X1040896Y1097123D1*
X1044594Y1094131D1*
X1048170Y1091138D1*
X1051408Y1088146D1*
X1054294Y1085154D1*
X1057028Y1082162D1*
X1060084Y1079170D1*
X1063521Y1076178D1*
X1066907Y1073186D1*
X1069956Y1070194D1*
X1072884Y1067201D1*
X1075896Y1064209D1*
X1079040Y1061217D1*
X1082159Y1058225D1*
X1085025Y1055233D1*
X1087655Y1052241D1*
X1089782Y1049249D1*
X1091173Y1046257D1*
X1092188Y1043264D1*
X1098173D1*
Y1040272D1*
Y1037280D1*
X1104157D1*
X1106791Y1034288D1*
X1109814Y1031296D1*
X1112938Y1028304D1*
X1116031Y1025312D1*
X1119077Y1022320D1*
X1122105Y1019327D1*
X1125201Y1016335D1*
X1128461Y1013343D1*
X1131675Y1010351D1*
X1134238Y1007359D1*
X1135884Y1004367D1*
X1137070Y1001375D1*
X1143054D1*
X1145563Y998383D1*
X1148086Y995390D1*
X1150007Y992398D1*
X1151195Y989406D1*
X1152031Y986414D1*
X1158015D1*
X1160637Y983422D1*
X1163567Y980430D1*
X1166415Y977438D1*
X1169161Y974446D1*
X1172028Y971453D1*
X1174663Y968461D1*
X1176695Y965469D1*
X1177085Y962477D1*
X1174351Y959485D1*
X1171453Y956493D1*
X1168480Y953501D1*
X1165392Y950509D1*
X1162127Y947516D1*
X1158805Y944524D1*
X1155848Y941532D1*
X1153279Y938540D1*
X1150583Y935548D1*
X1147370Y932556D1*
X1143967Y929564D1*
X1140851Y926572D1*
X1137967Y923579D1*
X1134907Y920587D1*
X1131530Y917595D1*
X1128000Y914603D1*
X1124515Y911611D1*
X1121396Y908619D1*
X1118604Y905627D1*
X1115750Y902635D1*
X1112639Y899642D1*
X1109500Y896650D1*
X1106969Y893658D1*
X1105336Y890666D1*
X1104157Y887674D1*
X1098173D1*
X1095550Y884682D1*
X1092632Y881690D1*
X1089877Y878698D1*
X1087408Y875705D1*
X1084841Y872713D1*
X1081918Y869721D1*
X1078866Y866729D1*
X1075896Y863737D1*
X1073043Y860745D1*
X1070085Y857753D1*
X1066714Y854761D1*
X1063234Y851768D1*
X1060084Y848776D1*
X1057187Y845784D1*
X1054122Y842792D1*
X1050744Y839800D1*
X1047213Y836808D1*
X1043728Y833816D1*
X1040597Y830824D1*
X1037712Y827831D1*
X1034581Y824839D1*
X1031132Y821847D1*
X1027900Y818855D1*
X1025397Y815863D1*
X1023369Y812871D1*
X697228Y1109091D2*
Y1106099D1*
Y1103107D1*
Y1100115D1*
Y1097123D1*
Y1094131D1*
Y1091138D1*
Y1088146D1*
Y1085154D1*
Y1082162D1*
Y1079170D1*
Y1076178D1*
Y1073186D1*
Y1070194D1*
Y1067201D1*
Y1064209D1*
Y1061217D1*
Y1058225D1*
Y1055233D1*
Y1052241D1*
Y1049249D1*
Y1046257D1*
Y1043264D1*
Y1040272D1*
Y1037280D1*
Y1034288D1*
Y1031296D1*
Y1028304D1*
Y1025312D1*
Y1022320D1*
Y1019327D1*
Y1016335D1*
Y1013343D1*
Y1010351D1*
Y1007359D1*
Y1004367D1*
Y1001375D1*
Y998383D1*
Y995390D1*
Y992398D1*
Y989406D1*
Y986414D1*
Y983422D1*
Y980430D1*
Y977438D1*
Y974446D1*
Y971453D1*
Y968461D1*
Y965469D1*
Y962477D1*
Y959485D1*
Y956493D1*
Y953501D1*
Y950509D1*
Y947516D1*
Y944524D1*
Y941532D1*
Y938540D1*
Y935548D1*
Y932556D1*
Y929564D1*
Y926572D1*
Y923579D1*
Y920587D1*
Y917595D1*
Y914603D1*
Y911611D1*
Y908619D1*
Y905627D1*
Y902635D1*
Y899642D1*
Y896650D1*
Y893658D1*
Y890666D1*
Y887674D1*
Y884682D1*
Y881690D1*
Y878698D1*
Y875705D1*
Y872713D1*
Y869721D1*
Y866729D1*
Y863737D1*
Y860745D1*
Y857753D1*
Y854761D1*
Y851768D1*
Y848776D1*
Y845784D1*
Y842792D1*
Y839800D1*
Y836808D1*
Y833816D1*
Y830824D1*
Y827831D1*
Y824839D1*
Y821847D1*
Y818855D1*
X996440Y1109091D2*
Y1106099D1*
Y1103107D1*
Y1100115D1*
Y1097123D1*
Y1094131D1*
Y1091138D1*
Y1088146D1*
Y1085154D1*
Y1082162D1*
Y1079170D1*
Y1076178D1*
Y1073186D1*
Y1070194D1*
Y1067201D1*
Y1064209D1*
Y1061217D1*
Y1058225D1*
Y1055233D1*
Y1052241D1*
Y1049249D1*
Y1046257D1*
Y1043264D1*
Y1040272D1*
Y1037280D1*
Y1034288D1*
Y1031296D1*
Y1028304D1*
Y1025312D1*
Y1022320D1*
Y1019327D1*
Y1016335D1*
Y1013343D1*
Y1010351D1*
Y1007359D1*
Y1004367D1*
Y1001375D1*
Y998383D1*
Y995390D1*
Y992398D1*
Y989406D1*
Y986414D1*
Y983422D1*
Y980430D1*
Y977438D1*
Y974446D1*
Y971453D1*
Y968461D1*
Y965469D1*
Y962477D1*
Y959485D1*
Y956493D1*
Y953501D1*
Y950509D1*
Y947516D1*
Y944524D1*
Y941532D1*
Y938540D1*
Y935548D1*
Y932556D1*
Y929564D1*
Y926572D1*
Y923579D1*
Y920587D1*
Y917595D1*
Y914603D1*
Y911611D1*
Y908619D1*
Y905627D1*
Y902635D1*
Y899642D1*
Y896650D1*
Y893658D1*
Y890666D1*
Y887674D1*
Y884682D1*
Y881690D1*
Y878698D1*
Y875705D1*
Y872713D1*
Y869721D1*
Y866729D1*
Y863737D1*
Y860745D1*
Y857753D1*
Y854761D1*
Y851768D1*
Y848776D1*
Y845784D1*
Y842792D1*
Y839800D1*
Y836808D1*
Y833816D1*
Y830824D1*
Y827831D1*
Y824839D1*
Y821847D1*
Y818855D1*
X843842Y1100115D2*
X810928Y1097123D1*
Y1094131D1*
X800812Y1091138D1*
X792344Y1088146D1*
X785354Y1085154D1*
X779349Y1082162D1*
X774060Y1079170D1*
X769673Y1076178D1*
X766150Y1073186D1*
X762925Y1070194D1*
X759540Y1067201D1*
X755852Y1064209D1*
X752194Y1061217D1*
X748972Y1058225D1*
X746145Y1055233D1*
X743470Y1052241D1*
X741002Y1049249D1*
X738894Y1046257D1*
X736994Y1043264D1*
X735075Y1040272D1*
X733080Y1037280D1*
X731133Y1034288D1*
X729167Y1031296D1*
X727253Y1028304D1*
X725775Y1025312D1*
X724900Y1022320D1*
X724466Y1019327D1*
X724270Y1016335D1*
X724157Y1013343D1*
X718173D1*
X718161Y1010351D1*
X718056Y1007359D1*
X717674Y1004367D1*
X716958Y1001375D1*
X716191Y998383D1*
X715669Y995390D1*
X715391Y992398D1*
X715253Y989406D1*
X715095Y986414D1*
X714693Y983422D1*
X713969Y980430D1*
X713200Y977438D1*
X712677Y974446D1*
X712399Y971453D1*
X712284Y968461D1*
X712337Y965469D1*
X712698Y962477D1*
X713407Y959485D1*
X714172Y956493D1*
X714693Y953501D1*
X714981Y950509D1*
X715213Y947516D1*
X715647Y944524D1*
X716384Y941532D1*
X717159Y938540D1*
X717695Y935548D1*
X718090Y932556D1*
X718704Y929564D1*
X719854Y926572D1*
X721370Y923579D1*
X722771Y920587D1*
X723966Y917595D1*
X725193Y914603D1*
X726533Y911611D1*
X727961Y908619D1*
X729520Y905627D1*
X731288Y902635D1*
X733222Y899642D1*
X735158Y896650D1*
X737221Y893658D1*
X739536Y890666D1*
X741963Y887674D1*
X744579Y884682D1*
X747741Y881690D1*
X751292Y878698D1*
X754572Y875705D1*
X757490Y872713D1*
X760510Y869721D1*
X764053Y866729D1*
X768140Y863737D1*
X772327Y860745D1*
X776558Y857753D1*
X781518Y854761D1*
X787884Y851768D1*
X795454Y848776D1*
X803636Y845784D1*
X813735Y842792D1*
X827579Y839800D1*
X843842Y836808D1*
X852818Y1100115D2*
X885732Y1097123D1*
Y1094131D1*
X895859Y1091138D1*
X904410Y1088146D1*
X911582Y1085154D1*
X917658Y1082162D1*
X922756Y1079170D1*
X927123Y1076178D1*
X930982Y1073186D1*
X934340Y1070194D1*
X937462Y1067201D1*
X940672Y1064209D1*
X943863Y1061217D1*
X946968Y1058225D1*
X950000Y1055233D1*
X952814Y1052241D1*
X955140Y1049249D1*
X956892Y1046257D1*
X958497Y1043264D1*
X960328Y1040272D1*
X962416Y1037280D1*
X964391Y1034288D1*
X966065Y1031296D1*
X967776Y1028304D1*
X969536Y1025312D1*
X970950Y1022320D1*
X971909Y1019327D1*
X972815Y1016335D1*
X974098Y1013343D1*
X975657Y1010351D1*
X976974Y1007359D1*
X977783Y1004367D1*
X978191Y1001375D1*
X978383Y998383D1*
X978562Y995390D1*
X978971Y992398D1*
X979709Y989406D1*
X980585Y986414D1*
X981489Y983422D1*
X982483Y980430D1*
X983378Y977438D1*
X983952Y974446D1*
X984250Y971453D1*
X984372Y968461D1*
X984322Y965469D1*
X983962Y962477D1*
X983241Y959485D1*
X982372Y956493D1*
X981469Y953501D1*
X980476Y950509D1*
X979582Y947516D1*
X979007Y944524D1*
X978710Y941532D1*
X978564Y938540D1*
X978392Y935548D1*
X977884Y932556D1*
X976779Y929564D1*
X975292Y926572D1*
X973979Y923579D1*
X972969Y920587D1*
X971802Y917595D1*
X970177Y914603D1*
X968465Y911611D1*
X967012Y908619D1*
X965731Y905627D1*
X964706Y902635D1*
X964076Y899642D1*
X963741Y896650D1*
X963527Y893658D1*
X969511D1*
X972145Y890666D1*
X975157Y887674D1*
X978164Y884682D1*
X980758Y881690D1*
X982590Y878698D1*
X983624Y875705D1*
X984123Y872713D1*
X984337Y869721D1*
X984423Y866729D1*
X984455Y863737D1*
X984466Y860745D1*
X984470Y857753D1*
X984471Y854761D1*
X984472Y851768D1*
Y848776D1*
Y845784D1*
Y842792D1*
Y839800D1*
Y836808D1*
X655338Y1073186D2*
X652346Y1070194D1*
X649354Y1067201D1*
X646373Y1064209D1*
X643475Y1061217D1*
X640759Y1058225D1*
X638102Y1055233D1*
X635149Y1052241D1*
X631818Y1049249D1*
X628305Y1046257D1*
X624827Y1043264D1*
X621710Y1040272D1*
X618919Y1037280D1*
X616065Y1034288D1*
X612931Y1031296D1*
X609583Y1028304D1*
X606296Y1025312D1*
X603214Y1022320D1*
X600316Y1019327D1*
X597351Y1016335D1*
X594067Y1013343D1*
X590861Y1010351D1*
X588057Y1007359D1*
X585327Y1004367D1*
X582525Y1001375D1*
X580193Y998383D1*
X578661Y995390D1*
X577543Y992398D1*
X571558D1*
Y989406D1*
Y986414D1*
X565574D1*
X564172Y983422D1*
X562582Y980430D1*
X1035338Y1073186D2*
X1033957Y1070194D1*
X1033097Y1067201D1*
X1032662Y1064209D1*
X1032461Y1061217D1*
X1032346Y1058225D1*
X658330Y1070194D2*
Y1067201D1*
Y1064209D1*
Y1061217D1*
Y1058225D1*
X1038330Y1070194D2*
X1041322Y1067201D1*
X1044314Y1064209D1*
X1047306Y1061217D1*
X1050299Y1058225D1*
X1053291Y1055233D1*
X1056294Y1052241D1*
X1059380Y1049249D1*
X1062660Y1046257D1*
X1066081Y1043264D1*
X1069400Y1040272D1*
X1072494Y1037280D1*
X1075385Y1034288D1*
X1078269Y1031296D1*
X1081372Y1028304D1*
X1084519Y1025312D1*
X1087619Y1022320D1*
X1090762Y1019327D1*
X1094060Y1016335D1*
X1097484Y1013343D1*
X1100719Y1010351D1*
X1103625Y1007359D1*
X1106371Y1004367D1*
X1109339Y1001375D1*
X1112474Y998383D1*
X1115219Y995390D1*
X1117160Y992398D1*
X1118317Y989406D1*
X1119117Y986414D1*
X1125102D1*
Y983422D1*
X831873Y1061217D2*
X821543Y1058225D1*
X812801Y1055233D1*
X805599Y1052241D1*
X799272Y1049249D1*
X793550Y1046257D1*
X788453Y1043264D1*
X784011Y1040272D1*
X780190Y1037280D1*
X776804Y1034288D1*
X773645Y1031296D1*
X770682Y1028304D1*
X767959Y1025312D1*
X765496Y1022320D1*
X763228Y1019327D1*
X761256Y1016335D1*
X759618Y1013343D1*
X758389Y1010351D1*
X757554Y1007359D1*
X756711Y1004367D1*
X755457Y1001375D1*
X753910Y998383D1*
X752586Y995390D1*
X751673Y992398D1*
X750884Y989406D1*
X749987Y986414D1*
X749147Y983422D1*
X748597Y980430D1*
X748310Y977438D1*
X748179Y974446D1*
X748126Y971453D1*
X748105Y968461D1*
X748098Y965469D1*
X748107Y962477D1*
X748211Y959485D1*
X748592Y956493D1*
X749320Y953501D1*
X750193Y950509D1*
X751108Y947516D1*
X752207Y944524D1*
X753482Y941532D1*
X754785Y938540D1*
X755955Y935548D1*
X756992Y932556D1*
X758041Y929564D1*
X758957Y926572D1*
X759541Y923579D1*
X759858Y920587D1*
X760062Y917595D1*
X766047D1*
Y914603D1*
Y911611D1*
Y908619D1*
X772031D1*
X774676Y905627D1*
X777805Y902635D1*
X781322Y899642D1*
X785248Y896650D1*
X789571Y893658D1*
X794488Y890666D1*
X800669Y887674D1*
X809044Y884682D1*
X819818Y881690D1*
X831780Y878698D1*
X843842Y875705D1*
X867779Y1061217D2*
X876516Y1058225D1*
X884608Y1055233D1*
X891629Y1052241D1*
X897645Y1049249D1*
X902821Y1046257D1*
X907189Y1043264D1*
X911098Y1040272D1*
X914791Y1037280D1*
X918112Y1034288D1*
X920838Y1031296D1*
X922730Y1028304D1*
X923853Y1025312D1*
X924629Y1022320D1*
X930614D1*
X932671Y1019327D1*
X934557Y1016335D1*
X936073Y1013343D1*
X937388Y1010351D1*
X938524Y1007359D1*
X939547Y1004367D1*
X940688Y1001375D1*
X941978Y998383D1*
X943275Y995390D1*
X944341Y992398D1*
X944998Y989406D1*
X945331Y986414D1*
X945490Y983422D1*
X945656Y980430D1*
X946048Y977438D1*
X946668Y974446D1*
X947056Y971453D1*
X946863Y968461D1*
X946373Y965469D1*
X945978Y962477D1*
X945754Y959485D1*
X945635Y956493D1*
X945473Y953501D1*
X944969Y950509D1*
X943865Y947516D1*
X942367Y944524D1*
X940963Y941532D1*
X939698Y938540D1*
X938250Y935548D1*
X936598Y932556D1*
X673291Y1034288D2*
X670196Y1031296D1*
X666914Y1028304D1*
X663493Y1025312D1*
X660162Y1022320D1*
X656986Y1019327D1*
X653912Y1016335D1*
X650982Y1013343D1*
X648278Y1010351D1*
X645803Y1007359D1*
X643369Y1004367D1*
X676283Y1034288D2*
Y1031296D1*
Y1028304D1*
Y1025312D1*
Y1022320D1*
Y1019327D1*
Y1016335D1*
Y1013343D1*
Y1010351D1*
Y1007359D1*
Y1004367D1*
Y1001375D1*
Y998383D1*
Y995390D1*
Y992398D1*
Y989406D1*
Y986414D1*
Y983422D1*
Y980430D1*
Y977438D1*
Y974446D1*
Y971453D1*
Y968461D1*
Y965469D1*
Y962477D1*
Y959485D1*
Y956493D1*
Y953501D1*
Y950509D1*
Y947516D1*
Y944524D1*
Y941532D1*
Y938540D1*
Y935548D1*
Y932556D1*
Y929564D1*
Y926572D1*
Y923579D1*
Y920587D1*
Y917595D1*
Y914603D1*
Y911611D1*
Y908619D1*
Y905627D1*
Y902635D1*
Y899642D1*
Y896650D1*
X631401Y1031296D2*
X630606Y1028304D1*
X627961Y1025312D1*
X624398Y1022320D1*
X620467Y1019327D1*
X616394Y1016335D1*
X611982Y1013343D1*
X607358Y1010351D1*
X603003Y1007359D1*
X599071Y1004367D1*
X595180Y1001375D1*
X590919Y998383D1*
X586463Y995390D1*
X582418Y992398D1*
X578836Y989406D1*
X575006Y986414D1*
X570480Y983422D1*
X565574Y980430D1*
X637385Y1031296D2*
Y1028304D1*
Y1025312D1*
Y1022320D1*
Y1019327D1*
Y1016335D1*
Y1013343D1*
Y1010351D1*
Y1007359D1*
Y1004367D1*
X1017385Y1031296D2*
Y1028304D1*
Y1025312D1*
Y1022320D1*
Y1019327D1*
Y1016335D1*
Y1013343D1*
Y1010351D1*
Y1007359D1*
Y1004367D1*
Y1001375D1*
Y998383D1*
Y995390D1*
Y992398D1*
Y989406D1*
Y986414D1*
Y983422D1*
Y980430D1*
Y977438D1*
Y974446D1*
Y971453D1*
Y968461D1*
Y965469D1*
Y962477D1*
Y959485D1*
Y956493D1*
Y953501D1*
Y950509D1*
Y947516D1*
Y944524D1*
Y941532D1*
Y938540D1*
Y935548D1*
Y932556D1*
Y929564D1*
Y926572D1*
Y923579D1*
Y920587D1*
Y917595D1*
Y914603D1*
Y911611D1*
Y908619D1*
Y905627D1*
Y902635D1*
Y899642D1*
X1020377Y1031296D2*
X1023832Y1028304D1*
X1027554Y1025312D1*
X1031227Y1022320D1*
X1034467Y1019327D1*
X1037402Y1016335D1*
X1040471Y1013343D1*
X1043767Y1010351D1*
X1047054Y1007359D1*
X1050299Y1004367D1*
X1053291Y1028304D2*
Y1025312D1*
Y1022320D1*
Y1019327D1*
Y1016335D1*
Y1013343D1*
Y1010351D1*
Y1007359D1*
Y1004367D1*
X1056283Y1028304D2*
X1061781Y1025312D1*
X1066813Y1022320D1*
X1071260Y1019327D1*
X1075276Y1016335D1*
X1079342Y1013343D1*
X1083751Y1010351D1*
X1088201Y1007359D1*
X1092381Y1004367D1*
X1096286Y1001375D1*
X1100299Y998383D1*
X1104599Y995390D1*
X1108779Y992398D1*
X1112733Y989406D1*
X1117026Y986414D1*
X1122238Y983422D1*
X1128094Y980430D1*
X876755D2*
Y977438D1*
Y974446D1*
Y971453D1*
Y968461D1*
Y965469D1*
Y962477D1*
Y959485D1*
Y956493D1*
Y953501D1*
Y950509D1*
Y947516D1*
X876767Y944524D1*
X876884Y941532D1*
X877382Y938540D1*
X878609Y935548D1*
X880684Y932556D1*
X883464Y929564D1*
X886581Y926572D1*
X889551Y923579D1*
X892360Y920587D1*
X895373Y917595D1*
X898546Y914603D1*
X901501Y911611D1*
X904098Y908619D1*
X906335Y905627D1*
X907957Y902635D1*
X908894Y899642D1*
X909371Y896650D1*
X909669Y893658D1*
X904923D1*
X900296Y890666D1*
X894607Y887674D1*
X886694Y884682D1*
X875866Y881690D1*
X863114Y878698D1*
X849826Y875705D1*
X879747Y980430D2*
X882532Y977438D1*
X884382Y974446D1*
X885732Y971453D1*
X891716D1*
X893899Y968461D1*
X896274Y965469D1*
X898900Y962477D1*
X901804Y959485D1*
X904622Y956493D1*
X907266Y953501D1*
X909972Y950509D1*
X912797Y947516D1*
X915709Y944524D1*
X918666Y941532D1*
X921645Y938540D1*
X924632Y935548D1*
X927621Y932556D1*
X556598Y974446D2*
Y953501D2*
X1134078D2*
X562582Y950509D2*
X563605Y947516D1*
X564504Y944524D1*
X565117Y941532D1*
X565574Y938540D1*
X571558D1*
X574192Y935548D1*
X577204Y932556D1*
X580235Y929564D1*
X583051Y926572D1*
X585762Y923579D1*
X588716Y920587D1*
X591870Y917595D1*
X594835Y914603D1*
X597643Y911611D1*
X600671Y908619D1*
X604035Y905627D1*
X607560Y902635D1*
X611043Y899642D1*
X614162Y896650D1*
X616953Y893658D1*
X619808Y890666D1*
X622942Y887674D1*
X626290Y884682D1*
X629589Y881690D1*
X632764Y878698D1*
X635927Y875705D1*
X639121Y872713D1*
X642064Y869721D1*
X644518Y866729D1*
X645554Y863737D1*
X646362Y860745D1*
X652346D1*
Y857753D1*
X565574Y950509D2*
X568670Y947516D1*
X572436Y944524D1*
X576346Y941532D1*
X580080Y938540D1*
X583890Y935548D1*
X588132Y932556D1*
X592682Y929564D1*
X597104Y926572D1*
X601379Y923579D1*
X605760Y920587D1*
X609920Y917595D1*
X613532Y914603D1*
X615160Y911611D1*
X616440Y908619D1*
X625417D1*
X628222Y905627D1*
X631401Y902635D1*
X1125102Y947516D2*
X1120614Y944524D1*
X1116368Y941532D1*
X1112107Y938540D1*
X1107668Y935548D1*
X1102978Y932556D1*
X1098195Y929564D1*
X1093764Y926572D1*
X1089823Y923579D1*
X1086141Y920587D1*
X1082742Y917595D1*
X1080104Y914603D1*
X1078429Y911611D1*
X1077228Y908619D1*
X1070601D1*
X1065030Y905627D1*
X1059275Y902635D1*
X1131086Y947516D2*
X1128302Y944524D1*
X1126452Y941532D1*
X1125102Y938540D1*
X1119117D1*
X1117393Y935548D1*
X1114888Y932556D1*
X1111719Y929564D1*
X1108533Y926572D1*
X1105802Y923579D1*
X1103236Y920587D1*
X1100362Y917595D1*
X1097170Y914603D1*
X1093947Y911611D1*
X1090805Y908619D1*
X1087655Y905627D1*
X1084442Y902635D1*
X1081292Y899642D1*
X1078390Y896650D1*
X1075535Y893658D1*
X1072543Y890666D1*
X1069319Y887674D1*
X1065916Y884682D1*
X1062600Y881690D1*
X1059423Y878698D1*
X1056343Y875705D1*
X1053302Y872713D1*
X1050202Y869721D1*
X1046928Y866729D1*
X1043600Y863737D1*
X1040575Y860745D1*
X1037906Y857753D1*
X1035338Y854761D1*
X640377Y926572D2*
X638996Y923579D1*
X638137Y920587D1*
X637702Y917595D1*
X637509Y914603D1*
X637431Y911611D1*
X637401Y908619D1*
X637390Y905627D1*
X637385Y902635D1*
X1050299Y926572D2*
X1048227Y923579D1*
X1045835Y920587D1*
X1042981Y917595D1*
X1039944Y914603D1*
X1036888Y911611D1*
X1033761Y908619D1*
X1030450Y905627D1*
X1026927Y902635D1*
X1023369Y899642D1*
X1053291Y926572D2*
Y923579D1*
Y920587D1*
Y917595D1*
Y914603D1*
Y911611D1*
Y908619D1*
Y905627D1*
Y902635D1*
X643369Y923579D2*
X646362Y920587D1*
X649354Y917595D1*
X652346Y914603D1*
X655338Y911611D1*
X658330Y908619D1*
X661322Y905627D1*
X664314Y902635D1*
X667306Y899642D1*
X670299Y896650D1*
X658330Y872713D2*
Y869721D1*
Y866729D1*
Y863737D1*
Y860745D1*
Y857753D1*
X664314Y872713D2*
X667643Y869721D1*
X670877Y866729D1*
X673428Y863737D1*
X675260Y860745D1*
X675803Y857753D1*
X676085Y854761D1*
X676208Y851768D1*
X676256Y848776D1*
X676273Y845784D1*
X676280Y842792D1*
X676282Y839800D1*
Y836808D1*
X676283Y833816D1*
Y830824D1*
Y827831D1*
Y824839D1*
Y821847D1*
Y818855D1*
Y815863D1*
Y812871D1*
X939590Y872713D2*
X936135Y869721D1*
X932390Y866729D1*
X928518Y863737D1*
X924597Y860745D1*
X920365Y857753D1*
X915400Y854761D1*
X909233Y851768D1*
X901978Y848776D1*
X894056Y845784D1*
X884622Y842792D1*
X872546Y839800D1*
X858802Y836808D1*
X942582Y872713D2*
X945676Y869721D1*
X948947Y866729D1*
X952275Y863737D1*
X955318Y860745D1*
X958064Y857753D1*
X960812Y854761D1*
X963654Y851768D1*
X966572Y848776D1*
X969531Y845784D1*
X972511Y842792D1*
X975498Y839800D1*
X978488Y836808D1*
X1026362Y872713D2*
X1023495Y869721D1*
X1021003Y866729D1*
X1019227Y863737D1*
X1018217Y860745D1*
X1017728Y857753D1*
X1017517Y854761D1*
X1017434Y851768D1*
X1017402Y848776D1*
X1017391Y845784D1*
X1017387Y842792D1*
X1017386Y839800D1*
X1017385Y836808D1*
Y833816D1*
Y830824D1*
Y827831D1*
Y824839D1*
Y821847D1*
Y818855D1*
Y815863D1*
Y812871D1*
X1032346Y872713D2*
Y869721D1*
X1032357Y866729D1*
X1032471Y863737D1*
X1032934Y860745D1*
X1033957Y857753D1*
X1035338Y854761D1*
X685259Y800902D2*
X686054Y797910D1*
X688585Y794918D1*
X691741Y791926D1*
X694745Y788934D1*
X697288Y785942D1*
X699745Y782949D1*
X702557Y779957D1*
X705729Y776965D1*
X708949Y773973D1*
X712173Y770981D1*
X715512Y767989D1*
X718881Y764997D1*
X722030Y762005D1*
X725069Y759012D1*
X728247Y756020D1*
X731428Y753028D1*
X734541Y750036D1*
X737688Y747044D1*
X741000Y744052D1*
X744529Y741060D1*
X748135Y738068D1*
X751640Y735075D1*
X754656Y732083D1*
X756943Y729091D1*
X758500Y726099D1*
X759423Y723107D1*
X760062Y720115D1*
X766047D1*
X768680Y717123D1*
X771704Y714131D1*
X774828Y711138D1*
X777921Y708146D1*
X780967Y705154D1*
X783995Y702162D1*
X787091Y699170D1*
X790351Y696178D1*
X793564Y693186D1*
X796127Y690194D1*
X797773Y687201D1*
X798960Y684209D1*
X804944D1*
X807018Y681217D1*
X809880Y678225D1*
X813096Y675233D1*
X815921Y672241D1*
X818222Y669249D1*
X819169Y666257D1*
X819905Y663264D1*
X825889D1*
X828523Y660272D1*
X831546Y657280D1*
X834672Y654288D1*
X837773Y651296D1*
X840850Y648304D1*
X745102Y800902D2*
X745689Y797910D1*
X746921Y794918D1*
X748842Y791926D1*
X751086Y788934D1*
X745625Y785942D1*
X741118Y782949D1*
X737572Y779957D1*
X738479Y776965D1*
X740685Y773973D1*
X742688Y770981D1*
X744069Y767989D1*
X745102Y764997D1*
X751086D1*
X753720Y762005D1*
X756731Y759012D1*
X759762Y756020D1*
X762579Y753028D1*
X765289Y750036D1*
X768267Y747044D1*
X771608Y744052D1*
X775136Y741060D1*
X778709Y738068D1*
X782115Y735075D1*
X785334Y732083D1*
X788515Y729091D1*
X791728Y726099D1*
X794789Y723107D1*
X797415Y720115D1*
X799924Y717123D1*
X802772Y714131D1*
X805954Y711138D1*
X809172Y708146D1*
X812312Y705154D1*
X815462Y702162D1*
X818651Y699170D1*
X821592Y696178D1*
X824046Y693186D1*
X825082Y690194D1*
X825889Y687201D1*
X831873D1*
Y684209D1*
X775023Y800902D2*
X775725Y797910D1*
X776943Y794918D1*
X779944Y791926D1*
X783201Y788934D1*
X786248Y785942D1*
X789091Y782949D1*
X792036Y779957D1*
X795027Y776965D1*
X797816Y773973D1*
X800348Y770981D1*
X802361Y767989D1*
X803902Y764997D1*
X791646Y762005D1*
X778015Y759012D1*
X780893Y756020D1*
X783502Y753028D1*
X785777Y750036D1*
X788002Y747044D1*
X790460Y744052D1*
X793081Y741060D1*
X795659Y738068D1*
X798158Y735075D1*
X800686Y732083D1*
X803095Y729091D1*
X805180Y726099D1*
X807083Y723107D1*
X809105Y720115D1*
X811469Y717123D1*
X814039Y714131D1*
X816507Y711138D1*
X818713Y708146D1*
X820822Y705154D1*
X822996Y702162D1*
X825280Y699170D1*
X827824Y696178D1*
X830735Y693186D1*
X834112Y690194D1*
X837858Y687201D1*
X834865Y684209D1*
X921637Y800902D2*
X918543Y797910D1*
X915272Y794918D1*
X911956Y791926D1*
X909007Y788934D1*
X906524Y785942D1*
X904018Y782949D1*
X900939Y779957D1*
X897348Y776965D1*
X893840Y773973D1*
X890804Y770981D1*
X888509Y767989D1*
X886782Y764997D1*
X899034Y762005D1*
X912661Y759012D1*
X910143Y756020D1*
X908009Y753028D1*
X906289Y750036D1*
X905028Y747044D1*
X904243Y744052D1*
X903684Y741060D1*
X897700D1*
X896089Y738068D1*
X893968Y735075D1*
X891516Y732083D1*
X889110Y729091D1*
X887006Y726099D1*
X885098Y723107D1*
X883079Y720115D1*
X880800Y717123D1*
X878419Y714131D1*
X876096Y711138D1*
X873783Y708146D1*
X871431Y705154D1*
X868855Y702162D1*
X865933Y699170D1*
X862550Y696178D1*
X858802Y693186D1*
X861795Y690194D1*
X951558Y800902D2*
X948566Y797910D1*
X945574Y794918D1*
X942582Y791926D1*
X939590Y788934D1*
X946135Y785942D1*
X951886Y782949D1*
X956795Y779957D1*
X954494Y776965D1*
X951592Y773973D1*
X948301Y770981D1*
X944921Y767989D1*
X941844Y764997D1*
X939068Y762005D1*
X936220Y759012D1*
X933087Y756020D1*
X929740Y753028D1*
X926441Y750036D1*
X923267Y747044D1*
X920092Y744052D1*
X916781Y741060D1*
X913352Y738068D1*
X910115Y735075D1*
X907209Y732083D1*
X904462Y729091D1*
X901494Y726099D1*
X898336Y723107D1*
X895358Y720115D1*
X892455Y717123D1*
X889162Y714131D1*
X885569Y711138D1*
X882362Y708146D1*
X879725Y705154D1*
X877143Y702162D1*
X874049Y699170D1*
X870588Y696178D1*
X867483Y693186D1*
X864787Y690194D1*
X1011401Y800902D2*
X1008307Y797910D1*
X1005024Y794918D1*
X1001603Y791926D1*
X998272Y788934D1*
X995097Y785942D1*
X992011Y782949D1*
X988974Y779957D1*
X985880Y776965D1*
X982693Y773973D1*
X979542Y770981D1*
X976551Y767989D1*
X973409Y764997D1*
X969989Y762005D1*
X966427Y759012D1*
X962840Y756020D1*
X959442Y753028D1*
X956325Y750036D1*
X953514Y747044D1*
X950901Y744052D1*
X948132Y741060D1*
X945034Y738068D1*
X941700Y735075D1*
X938430Y732083D1*
X935478Y729091D1*
X933167Y726099D1*
X931684Y723107D1*
X930614Y720115D1*
X924629D1*
X922446Y717123D1*
X920071Y714131D1*
X917434Y711138D1*
X914436Y708146D1*
X911330Y705154D1*
X908245Y702162D1*
X905108Y699170D1*
X901800Y696178D1*
X898272Y693186D1*
X894667Y690194D1*
X891150Y687201D1*
X888018Y684209D1*
X885221Y681217D1*
X882365Y678225D1*
X879242Y675233D1*
X875987Y672241D1*
X872964Y669249D1*
X870137Y666257D1*
X867118Y663264D1*
X863942Y660272D1*
X860975Y657280D1*
X858266Y654288D1*
X855561Y651296D1*
X852818Y648304D1*
X855810Y687201D2*
X692590Y2135601D2*
D73*
X694491Y2139404D1*
X698338Y2143251D1*
X702140Y2145152D1*
X709790D1*
X713637Y2143251D1*
X717439Y2139404D1*
X719385Y2135601D1*
X721286Y2129853D1*
Y2120259D1*
X719385Y2114555D1*
X717439Y2110708D1*
X713637Y2106905D1*
X709790Y2104960D1*
X702140D1*
X698338Y2106905D1*
X694491Y2110708D1*
X692590Y2114555D1*
X676392Y2145108D2*
X655389D1*
X666841Y2129809D1*
X661093D1*
X657291Y2127908D1*
X655389Y2126007D1*
X653444Y2120259D1*
Y2116456D1*
X655389Y2110708D1*
X659192Y2106861D1*
X664940Y2104960D1*
X670688D1*
X676392Y2106861D1*
X678293Y2108807D1*
X680238Y2112609D1*
X694597Y1933109D2*
X696498Y1936912D1*
X700345Y1940759D1*
X704148Y1942660D1*
X711797D1*
X715644Y1940759D1*
X719446Y1936912D1*
X721392Y1933109D1*
X723293Y1927361D1*
Y1917766D1*
X721392Y1912063D1*
X719446Y1908216D1*
X715644Y1904413D1*
X711797Y1902468D1*
X704148D1*
X700345Y1904413D1*
X696498Y1908216D1*
X694597Y1912063D1*
X663100Y1902468D2*
Y1942616D1*
X682246Y1915865D1*
X653550D1*
X1277204Y1898319D2*
X1279105Y1902122D1*
X1282952Y1905969D1*
X1286755Y1907870D1*
X1294404D1*
X1298251Y1905969D1*
X1302053Y1902122D1*
X1303999Y1898319D1*
X1305900Y1892571D1*
Y1882976D1*
X1303999Y1877273D1*
X1302053Y1873426D1*
X1298251Y1869623D1*
X1294404Y1867678D1*
X1286755D1*
X1282952Y1869623D1*
X1279105Y1873426D1*
X1277204Y1877273D1*
X1241905Y1907826D2*
X1261006D1*
X1262907Y1890626D1*
X1261006Y1892527D1*
X1255258Y1894472D1*
X1249554D1*
X1243806Y1892527D1*
X1239959Y1888724D1*
X1238058Y1882976D1*
Y1879174D1*
X1239959Y1873426D1*
X1243806Y1869579D1*
X1249554Y1867678D1*
X1255258D1*
X1261006Y1869579D1*
X1262907Y1871525D1*
X1264853Y1875327D1*
X1278554Y1614621D2*
X1280455Y1618424D1*
X1284302Y1622270D1*
X1288105Y1624172D1*
X1295754D1*
X1299601Y1622270D1*
X1303403Y1618424D1*
X1305349Y1614621D1*
X1307250Y1608873D1*
Y1599278D1*
X1305349Y1593574D1*
X1303403Y1589728D1*
X1299601Y1585925D1*
X1295754Y1583980D1*
X1288105D1*
X1284302Y1585925D1*
X1280455Y1589728D1*
X1278554Y1593574D1*
X1243255Y1618424D2*
X1245156Y1622226D1*
X1250904Y1624127D1*
X1254707D1*
X1260455Y1622226D1*
X1264301Y1616478D1*
X1266203Y1606928D1*
Y1597377D1*
X1264301Y1589728D1*
X1260455Y1585881D1*
X1254707Y1583980D1*
X1252805D1*
X1247102Y1585881D1*
X1243255Y1589728D1*
X1241354Y1595476D1*
Y1597377D1*
X1243255Y1603125D1*
X1247102Y1606928D1*
X1252805Y1608829D1*
X1254707D1*
X1260455Y1606928D1*
X1264301Y1603125D1*
X1266203Y1597377D1*
X1552141Y1250138D2*
X1554042Y1253941D1*
X1557889Y1257787D1*
X1561692Y1259689D1*
X1569341D1*
X1573188Y1257787D1*
X1576990Y1253941D1*
X1578936Y1250138D1*
X1580837Y1244390D1*
Y1234795D1*
X1578936Y1229091D1*
X1576990Y1225245D1*
X1573188Y1221442D1*
X1569341Y1219497D1*
X1561692D1*
X1557889Y1221442D1*
X1554042Y1225245D1*
X1552141Y1229091D1*
X1532140Y1219497D2*
X1512995Y1259644D1*
X1539790D1*
X1217024Y2106201D2*
X1218926Y2110004D1*
X1222773Y2113850D1*
X1226575Y2115752D1*
X1234224D1*
X1238071Y2113850D1*
X1241874Y2110004D1*
X1243819Y2106201D1*
X1245720Y2100453D1*
Y2090858D1*
X1243819Y2085154D1*
X1241874Y2081308D1*
X1238071Y2077505D1*
X1234224Y2075560D1*
X1226575D1*
X1222773Y2077505D1*
X1218926Y2081308D1*
X1217024Y2085154D1*
X1195123Y2115707D2*
X1200826Y2113806D1*
X1202772Y2110004D1*
Y2106157D1*
X1200826Y2102354D1*
X1197024Y2100409D1*
X1189374Y2098508D1*
X1183626Y2096606D1*
X1179824Y2092760D1*
X1177923Y2088957D1*
Y2083209D1*
X1179824Y2079406D1*
X1181725Y2077461D1*
X1187473Y2075560D1*
X1195123D1*
X1200826Y2077461D1*
X1202772Y2079406D1*
X1204673Y2083209D1*
Y2088957D1*
X1202772Y2092760D1*
X1198925Y2096606D1*
X1193221Y2098508D1*
X1185572Y2100409D1*
X1181725Y2102354D1*
X1179824Y2106157D1*
Y2110004D1*
X1181725Y2113806D1*
X1187473Y2115707D1*
X1195123D1*
X1237130Y1166798D2*
X1277322D1*
X1242878D2*
X1239075Y1170600D1*
X1237130Y1174447D1*
Y1180195D1*
X1239075Y1183998D1*
X1242878Y1187845D1*
X1248626Y1189746D1*
X1252473D1*
X1258176Y1187845D1*
X1262023Y1183998D1*
X1263924Y1180195D1*
Y1174447D1*
X1262023Y1170600D1*
X1258176Y1166798D1*
X1223732Y1129553D2*
Y1154446D1*
X1263924D1*
X1242878D2*
Y1139148D1*
X1237130Y1117202D2*
X1256275D1*
X1261979Y1115300D1*
X1263924Y1111454D1*
Y1105706D1*
X1261979Y1101903D1*
X1256275Y1096155D1*
X1237130D2*
X1263924D1*
X1237130Y1083804D2*
X1263924D1*
X1244779D2*
X1239031Y1078056D1*
X1237130Y1074209D1*
Y1068505D1*
X1239031Y1064658D1*
X1244779Y1062757D1*
X1263924D1*
X1223732Y1050406D2*
X1263924D1*
X1237130Y1031260D2*
X1256275Y1050406D1*
X1248626Y1042756D2*
X1263924Y1029359D1*
X1248626Y1017008D2*
Y994060D1*
X1244779D1*
X1240932Y995961D1*
X1239031Y997862D1*
X1237130Y1001709D1*
Y1007457D1*
X1239031Y1011260D1*
X1242878Y1015106D1*
X1248626Y1017008D1*
X1252428D1*
X1258176Y1015106D1*
X1261979Y1011260D1*
X1263924Y1007457D1*
Y1001709D1*
X1261979Y997862D1*
X1258176Y994060D1*
X1237130Y981708D2*
X1263924D1*
X1244779D2*
X1239031Y975960D1*
X1237130Y972113D1*
Y966410D1*
X1239031Y962563D1*
X1244779Y960662D1*
X1263924D1*
X1229481Y882635D2*
X1225634Y886437D1*
X1223732Y892185D1*
Y899835D1*
X1225634Y905583D1*
X1229481Y909429D1*
X1233283D1*
X1237130Y907484D1*
X1239031Y905583D1*
X1240932Y901780D1*
X1244779Y890284D1*
X1246680Y886437D1*
X1248626Y884536D1*
X1252428Y882635D1*
X1258176D1*
X1261979Y886437D1*
X1263924Y892185D1*
Y899835D1*
X1261979Y905583D1*
X1258176Y909429D1*
X1237130Y868338D2*
X1263924Y856886D1*
X1271574Y860689D1*
X1275421Y864535D1*
X1277322Y868338D1*
Y870283D1*
X1237130Y845390D2*
X1263924Y856886D1*
X1242878Y811992D2*
X1239031Y813893D1*
X1237130Y819641D1*
Y825389D1*
X1239031Y831137D1*
X1242878Y833039D1*
X1246680Y831137D1*
X1248626Y827291D1*
X1250527Y817740D1*
X1252428Y813893D1*
X1256275Y811992D1*
X1258176D1*
X1261979Y813893D1*
X1263924Y819641D1*
Y825389D1*
X1261979Y831137D1*
X1258176Y833039D1*
X1223733Y793893D2*
X1256275D1*
X1261979Y791991D1*
X1263924Y788145D1*
Y784342D1*
X1237130Y799641D2*
Y786243D1*
X1248626Y771991D2*
Y749043D1*
X1244779D1*
X1240932Y750944D1*
X1239031Y752845D1*
X1237130Y756692D1*
Y762440D1*
X1239031Y766243D1*
X1242878Y770089D1*
X1248626Y771991D1*
X1252428D1*
X1258176Y770089D1*
X1261979Y766243D1*
X1263924Y762440D1*
Y756692D1*
X1261979Y752845D1*
X1258176Y749043D1*
X1237130Y736691D2*
X1263924D1*
X1244779D2*
X1239031Y730943D1*
X1237130Y727097D1*
Y721393D1*
X1239031Y717546D1*
X1244779Y715645D1*
X1263924D1*
X1244779D2*
X1239031Y709897D1*
X1237130Y706050D1*
Y700346D1*
X1239031Y696499D1*
X1244779Y694554D1*
X1263925D1*
X1242878Y661156D2*
X1239031Y663057D1*
X1237130Y668805D1*
Y674553D1*
X1239031Y680301D1*
X1242878Y682202D1*
X1246680Y680301D1*
X1248626Y676454D1*
X1250527Y666904D1*
X1252428Y663057D1*
X1256275Y661156D1*
X1258176D1*
X1261979Y663057D1*
X1263925Y668805D1*
Y674553D1*
X1261979Y680301D1*
X1258176Y682202D1*
X2367281Y1765982D2*
X2365336Y1762136D1*
X2359632Y1756387D1*
X2399780D1*
X2369183Y1742091D2*
X2367281D1*
X2363435Y1740189D1*
X2361533Y1738288D1*
X2359632Y1734441D1*
Y1726792D1*
X2361533Y1722989D1*
X2363435Y1721088D1*
X2367281Y1719143D1*
X2371084D1*
X2374931Y1721088D1*
X2380634Y1724891D1*
X2399780Y1744036D1*
Y1717241D1*
Y1674293D2*
X2359588D1*
X2399780Y1689591D1*
X2359588Y1704890D1*
X2399780D1*
X2372985Y1638993D2*
X2399780D1*
X2378733D2*
X2374886Y1642796D1*
X2372985Y1646643D1*
Y1652347D1*
X2374886Y1656193D1*
X2378733Y1659996D1*
X2384481Y1661941D1*
X2388284D1*
X2394032Y1659996D1*
X2397834Y1656193D1*
X2399780Y1652347D1*
Y1646643D1*
X2397834Y1642796D1*
X2394032Y1638993D1*
X2372985Y1626642D2*
X2399780D1*
X2384481D2*
X2378733Y1624697D1*
X2374886Y1620894D1*
X2372985Y1617047D1*
Y1611299D1*
X2378733Y1575956D2*
X2374886Y1579803D1*
X2372985Y1583649D1*
Y1589353D1*
X2374886Y1593200D1*
X2378733Y1597002D1*
X2384481Y1598948D1*
X2388284D1*
X2394032Y1597002D1*
X2397834Y1593200D1*
X2399780Y1589353D1*
Y1583649D1*
X2397834Y1579803D1*
X2394032Y1575956D1*
X2359588Y1563604D2*
X2399780D1*
X2380634D2*
X2374886Y1557856D1*
X2372985Y1554010D1*
Y1548262D1*
X2374886Y1544459D1*
X2380634Y1542558D1*
X2399780D1*
X2369183Y1528261D2*
X2367281D1*
X2363435Y1526360D1*
X2361533Y1524458D1*
X2359632Y1520612D1*
Y1512962D1*
X2361533Y1509160D1*
X2363435Y1507258D1*
X2367281Y1505313D1*
X2371084D1*
X2374931Y1507258D1*
X2380634Y1511061D1*
X2399780Y1530206D1*
Y1503412D1*
X2359632Y1479564D2*
X2361533Y1485312D1*
X2367281Y1489159D1*
X2376832Y1491060D1*
X2382580D1*
X2392130Y1489159D1*
X2397879Y1485312D1*
X2399780Y1479564D1*
Y1475762D1*
X2397879Y1470014D1*
X2392130Y1466211D1*
X2382580Y1464266D1*
X2376832D1*
X2367281Y1466211D1*
X2361533Y1470014D1*
X2359632Y1475762D1*
Y1479564D1*
X2367281Y1466211D2*
X2392130Y1489159D1*
X2367281Y1451914D2*
X2365336Y1448067D1*
X2359632Y1442319D1*
X2399780D1*
X2372985Y1405075D2*
X2378733Y1407020D1*
X2382580Y1410823D1*
X2384481Y1416571D1*
Y1418472D1*
X2382580Y1424220D1*
X2378733Y1428023D1*
X2372985Y1429968D1*
X2371084D1*
X2365336Y1428023D1*
X2361533Y1424220D1*
X2359632Y1418472D1*
Y1416571D1*
X2361533Y1410823D1*
X2365336Y1407020D1*
X2372985Y1405075D1*
X2382580D1*
X2392130Y1407020D1*
X2397879Y1410823D1*
X2399780Y1416571D1*
Y1420373D1*
X2397879Y1426121D1*
X2394032Y1428023D1*
X2372985Y1353842D2*
X2399780D1*
X2384481D2*
X2378733Y1351897D1*
X2374886Y1348094D1*
X2372985Y1344248D1*
Y1338500D1*
X2384481Y1326148D2*
Y1303200D1*
X2380634D1*
X2376788Y1305102D1*
X2374886Y1307003D1*
X2372985Y1310850D1*
Y1316598D1*
X2374886Y1320400D1*
X2378733Y1324247D1*
X2384481Y1326148D1*
X2388284D1*
X2394032Y1324247D1*
X2397834Y1320400D1*
X2399780Y1316598D1*
Y1310850D1*
X2397834Y1307003D1*
X2394032Y1303200D1*
X2372985Y1290849D2*
X2399780Y1279353D1*
X2372985Y1267901D1*
X2367281Y1255550D2*
X2365336Y1251703D1*
X2359632Y1245955D1*
X2399780D1*
X2395933Y1231702D2*
X2397879Y1233603D1*
X2399780Y1231702D1*
X2397879Y1229757D1*
X2395933Y1231702D1*
X2359632Y1205909D2*
X2361533Y1211657D1*
X2367281Y1215504D1*
X2376832Y1217405D1*
X2382580D1*
X2392131Y1215504D1*
X2397879Y1211657D1*
X2399780Y1205909D1*
Y1202107D1*
X2397879Y1196359D1*
X2392130Y1192556D1*
X2382580Y1190611D1*
X2376832D1*
X2367281Y1192556D1*
X2361533Y1196359D1*
X2359632Y1202107D1*
Y1205909D1*
X2367281Y1192556D2*
X2392131Y1215504D1*
X2280817Y1754054D2*
X2284620Y1757901D1*
X2290368Y1761704D1*
X2298017Y1765550D1*
X2307612Y1767452D1*
X2315261D1*
X2324812Y1765550D1*
X2332461Y1761704D1*
X2338209Y1757901D1*
X2342012Y1754054D1*
X2300847Y1713007D2*
X2297044Y1714908D1*
X2293198Y1718755D1*
X2291296Y1722558D1*
Y1730207D1*
X2293198Y1734054D1*
X2297044Y1737856D1*
X2300847Y1739802D1*
X2306595Y1741703D1*
X2316190D1*
X2321894Y1739802D1*
X2325740Y1737856D1*
X2329543Y1734054D1*
X2331488Y1730207D1*
Y1722558D1*
X2329543Y1718755D1*
X2325740Y1714908D1*
X2321894Y1713007D1*
X2280817Y1700656D2*
X2284620Y1696809D1*
X2290368Y1693006D1*
X2298017Y1689160D1*
X2307612Y1687258D1*
X2315261D1*
X2324812Y1689160D1*
X2332461Y1693006D1*
X2338209Y1696809D1*
X2342012Y1700656D1*
X2291296Y1616881D2*
X2321894D1*
X2327642Y1618782D1*
X2329543Y1620728D1*
X2331488Y1624530D1*
Y1628377D1*
X2329543Y1632179D1*
X2327642Y1634081D1*
X2321894Y1636026D1*
X2318091D1*
X2304694Y1594979D2*
X2306595Y1598781D1*
X2310442Y1602628D1*
X2316190Y1604529D1*
X2319992D1*
X2325740Y1602628D1*
X2329543Y1598781D1*
X2331488Y1594979D1*
Y1589231D1*
X2329543Y1585384D1*
X2325740Y1581581D1*
X2319992Y1579636D1*
X2316190D1*
X2310442Y1581581D1*
X2306595Y1585384D1*
X2304694Y1589231D1*
Y1594979D1*
X2291296Y1567285D2*
X2331488D1*
X2312343D2*
X2306595Y1561537D1*
X2304694Y1557690D1*
Y1551942D1*
X2306595Y1548139D1*
X2312343Y1546238D1*
X2331488D1*
X2304694Y1533887D2*
X2331488D1*
X2312343D2*
X2306595Y1528139D1*
X2304694Y1524292D1*
Y1518588D1*
X2306595Y1514741D1*
X2312343Y1512840D1*
X2331488D1*
X2291296Y1436714D2*
Y1461608D1*
X2331488D1*
X2310442D2*
Y1446309D1*
X2327642Y1422462D2*
X2329587Y1424363D1*
X2331488Y1422462D1*
X2329587Y1420516D1*
X2327642Y1422462D1*
X2291296Y1357788D2*
X2293153Y1361591D1*
X2297000Y1365437D1*
X2300847Y1367339D1*
X2306595Y1369284D1*
X2316146D1*
X2321894Y1367339D1*
X2325696Y1365437D1*
X2329543Y1361591D1*
X2331444Y1357788D1*
Y1350139D1*
X2329543Y1346292D1*
X2325696Y1342489D1*
X2321894Y1340588D1*
X2316146Y1338643D1*
X2306595D1*
X2300847Y1340588D1*
X2297000Y1342489D1*
X2293153Y1346292D1*
X2291296Y1350139D1*
Y1357788D1*
X2323795Y1352040D2*
X2335291Y1340588D1*
X2304694Y1326291D2*
X2323839D1*
X2329543Y1324390D1*
X2331488Y1320543D1*
Y1314795D1*
X2329543Y1310993D1*
X2323839Y1305245D1*
X2304694D2*
X2331488D1*
X2291296Y1292893D2*
X2293198Y1290992D1*
X2291296Y1289046D1*
X2289351Y1290992D1*
X2291296Y1292893D1*
X2304694Y1290992D2*
X2331488D1*
X2304694Y1276695D2*
X2331488D1*
X2312343D2*
X2306595Y1270947D1*
X2304694Y1267100D1*
Y1261396D1*
X2306595Y1257550D1*
X2312343Y1255648D1*
X2331488D1*
X2304694Y1243297D2*
X2331488D1*
X2312343D2*
X2306595Y1237549D1*
X2304694Y1233702D1*
Y1227998D1*
X2306595Y1224152D1*
X2312343Y1222250D1*
X2331488D1*
M02*
