G04 DipTrace 3.3.1.0*
G04 GPIB-USBAR488v1.012Mar2019.GTO*
%MOIN*%
G04 #@! TF.FileFunction,Legend,Top*
G04 #@! TF.Part,Single*
%ADD10C,0.009843*%
%ADD13C,0.01*%
%ADD18C,0.005997*%
%ADD19C,0.011995*%
%ADD22O,0.015783X0.015936*%
%ADD28C,0.008*%
%ADD30C,0.005*%
%ADD35C,0.016*%
%ADD36C,0.006*%
%ADD73C,0.006176*%
%ADD74C,0.00772*%
%FSLAX26Y26*%
G04*
G70*
G90*
G75*
G01*
G04 TopSilk*
%LPD*%
X1051714Y1041692D2*
D18*
X1001672D1*
G02X981692Y1061752I-125J19856D01*
G01*
X1051714Y1041692D2*
G03X1071694Y1061752I125J19856D01*
G01*
X981692Y1191633D2*
Y1061752D1*
X1051714Y1211694D2*
X1001672D1*
X1071694Y1191633D2*
Y1061752D1*
X981692Y1191633D2*
G02X1001672Y1211694I19855J204D01*
G01*
X1071694Y1191633D2*
G03X1051714Y1211694I-19855J204D01*
G01*
X996722Y1114623D2*
D19*
X1056664D1*
X996722Y1139783D2*
X1056664D1*
X1001672Y1011694D2*
D18*
X1051714D1*
G02X1071694Y991633I125J-19856D01*
G01*
X1001672Y1011694D2*
G03X981692Y991633I-125J-19856D01*
G01*
X1071694Y861752D2*
Y991633D1*
X1001672Y841692D2*
X1051714D1*
X981692Y861752D2*
Y991633D1*
X1071694Y861752D2*
G02X1051714Y841692I-19855J-204D01*
G01*
X981692Y861752D2*
G03X1001672Y841692I19855J-204D01*
G01*
X1056664Y938763D2*
D19*
X996722D1*
X1056664Y913603D2*
X996722D1*
X1909758Y767962D2*
D10*
X2303486Y848720D1*
Y2104666D2*
X1909758Y2185424D1*
X1827049Y850658D2*
Y2102728D1*
X2382220Y968887D2*
Y1984498D1*
X1827049Y850658D2*
G03X1909758Y767962I74089J-8608D01*
G01*
X1827049Y2102728D2*
G02X1909758Y2185424I77168J5529D01*
G01*
X2303486Y2104666D2*
G02X2382220Y1984498I-39008J-111435D01*
G01*
X2303486Y848720D2*
G03X2382220Y968887I-40830J112628D01*
G01*
X2396316Y623890D2*
G03X2407822Y651670I-28869J28230D01*
G01*
X1805423D2*
Y2301715D1*
X1994576Y446438D2*
X1816928Y623890D1*
Y2329496D2*
G03X1805423Y2301715I28869J-28230D01*
G01*
X2407822D2*
Y651670D1*
X2218668Y2506948D2*
G03X1994576Y2506948I-112046J-111687D01*
G01*
X2407822Y2301715D2*
G03X2396316Y2329496I-40375J-449D01*
G01*
X1816928D2*
X1994576Y2506948D1*
Y446438D2*
G03X2218668Y446438I112046J111687D01*
G01*
Y2506948D2*
X2396316Y2329496D1*
X1805423Y651670D2*
G03X1816928Y623890I40375J449D01*
G01*
X2396316D2*
X2218668Y446438D1*
D22*
X2106622Y1476693D3*
X396875Y1630224D2*
D10*
Y1323161D1*
X614227Y1630224D2*
X751236D1*
X614227Y1323161D2*
X751236D1*
X396875Y1630224D2*
X474861D1*
X396875Y1323161D2*
X474861D1*
X751236Y1630224D2*
Y1581008D1*
Y1372378D2*
Y1323161D1*
X629843Y1928271D2*
X773543D1*
Y2125114D1*
X629843D1*
Y1928271D1*
G36*
X689636Y2129108D2*
X714468D1*
Y2185710D1*
X689636D1*
Y2129108D1*
G37*
G36*
Y1867676D2*
X713649D1*
Y1923543D1*
X689636D1*
Y1867676D1*
G37*
X951769Y2211724D2*
D18*
G02X961910Y2221722I9665J339D01*
G01*
X951769Y2141662D2*
G03X961910Y2131664I9665J-339D01*
G01*
X1191475D2*
G03X1201617Y2141662I476J9660D01*
G01*
X1191475Y2221722D2*
G02X1201617Y2211724I476J-9660D01*
G01*
X951769Y2141662D2*
Y2211724D1*
X961910Y2221722D2*
X976662D1*
X981732Y2216678D2*
X976662Y2221722D1*
X961910Y2131664D2*
X976662D1*
X981732Y2136708D2*
X976662Y2131664D1*
X1171654Y2216678D2*
X1176724Y2221722D1*
X1171654Y2216678D2*
X981732D1*
X1171654Y2136708D2*
X1176724Y2131664D1*
X1171654Y2136708D2*
X981732D1*
X1191475Y2221722D2*
X1176724D1*
X1191475Y2131664D2*
X1176724D1*
X1201617Y2141662D2*
Y2211724D1*
G36*
Y2164713D2*
X1235729D1*
Y2188673D1*
X1201617D1*
Y2164713D1*
G37*
G36*
X917657D2*
X951769D1*
Y2188673D1*
X917657D1*
Y2164713D1*
G37*
X891662Y908302D2*
D18*
G02X881664Y918443I-339J9665D01*
G01*
X961724Y908302D2*
G03X971722Y918443I339J9665D01*
G01*
Y1148008D2*
G03X961724Y1158150I-9660J476D01*
G01*
X881664Y1148008D2*
G02X891662Y1158150I9660J476D01*
G01*
X961724Y908302D2*
X891662D1*
X881664Y918443D2*
Y933194D1*
X886708Y938265D2*
X881664Y933194D1*
X971722Y918443D2*
Y933194D1*
X966678Y938265D2*
X971722Y933194D1*
X886708Y1128186D2*
X881664Y1133257D1*
X886708Y1128186D2*
Y938265D1*
X966678Y1128186D2*
X971722Y1133257D1*
X966678Y1128186D2*
Y938265D1*
X881664Y1148008D2*
Y1133257D1*
X971722Y1148008D2*
Y1133257D1*
X961724Y1158150D2*
X891662D1*
G36*
X938673D2*
X914713D1*
Y1192262D1*
X938673D1*
Y1158150D1*
G37*
G36*
Y874190D2*
X914713D1*
Y908302D1*
X938673D1*
Y874190D1*
G37*
X791662Y908302D2*
D18*
G02X781664Y918443I-339J9665D01*
G01*
X861724Y908302D2*
G03X871722Y918443I339J9665D01*
G01*
Y1148008D2*
G03X861724Y1158150I-9660J476D01*
G01*
X781664Y1148008D2*
G02X791662Y1158150I9660J476D01*
G01*
X861724Y908302D2*
X791662D1*
X781664Y918443D2*
Y933194D1*
X786708Y938265D2*
X781664Y933194D1*
X871722Y918443D2*
Y933194D1*
X866678Y938265D2*
X871722Y933194D1*
X786708Y1128186D2*
X781664Y1133257D1*
X786708Y1128186D2*
Y938265D1*
X866678Y1128186D2*
X871722Y1133257D1*
X866678Y1128186D2*
Y938265D1*
X781664Y1148008D2*
Y1133257D1*
X871722Y1148008D2*
Y1133257D1*
X861724Y1158150D2*
X791662D1*
G36*
X838673D2*
X814713D1*
Y1192262D1*
X838673D1*
Y1158150D1*
G37*
G36*
Y874190D2*
X814713D1*
Y908302D1*
X838673D1*
Y874190D1*
G37*
X1639701Y2457695D2*
D28*
X1469685D1*
Y2217691D2*
X1639701D1*
X1674714Y2376980D2*
Y2297675D1*
X1434672Y2378164D2*
Y2297675D1*
X1484700Y2337693D2*
G02X1484700Y2337693I69993J0D01*
G01*
X1026699Y1461703D2*
D18*
G02X1075607Y1436599I-370J-60914D01*
G01*
X978703Y1437740D2*
G02X1026699Y1461703I48117J-36327D01*
G01*
Y1341724D2*
G03X1074147Y1364872I26J60149D01*
G01*
X979251D2*
G03X1026699Y1341724I47081J36302D01*
G01*
Y1481754D2*
D13*
G02X1088199Y1452900I-412J-80848D01*
G01*
X956074Y1439370D2*
G02X1026699Y1481754I70519J-37473D01*
G01*
Y1321673D2*
G03X1087834Y1350037I-488J81118D01*
G01*
X957169Y1361938D2*
G03X1026699Y1321673I69468J39794D01*
G01*
X924685Y1469691D2*
D30*
X953701D1*
X938737Y1453715D2*
Y1484688D1*
X1277480Y2455433D2*
D10*
X875906D1*
Y2297953D1*
X1277480D1*
Y2455433D1*
X1226687Y1341683D2*
D18*
G02X1177779Y1366787I370J60914D01*
G01*
X1274683Y1365646D2*
G02X1226687Y1341683I-48117J36327D01*
G01*
Y1461662D2*
G03X1179239Y1438514I-26J-60149D01*
G01*
X1274135D2*
G03X1226687Y1461662I-47081J-36302D01*
G01*
Y1321632D2*
D13*
G02X1165187Y1350485I412J80848D01*
G01*
X1297312Y1364016D2*
G02X1226687Y1321632I-70519J37473D01*
G01*
Y1481713D2*
G03X1165552Y1453348I488J-81118D01*
G01*
X1296217Y1441448D2*
G03X1226687Y1481713I-69468J-39794D01*
G01*
X1328701Y1333695D2*
D30*
X1299684D1*
X1314649Y1349670D2*
Y1318697D1*
X1449329Y2185354D2*
D10*
Y768031D1*
X1654057Y2185354D2*
Y768031D1*
X1449329D2*
X1654057D1*
X1449329Y2185354D2*
X1528062D1*
X1654057D2*
X1575324D1*
X1528062D2*
G03X1575324Y2185354I23631J103D01*
G01*
X1293500Y1999820D2*
X884051D1*
X1293500Y1810815D2*
X884051D1*
Y1999820D2*
Y1810815D1*
X1293500Y1999820D2*
Y1932885D1*
Y1877750D2*
Y1810815D1*
Y1932885D2*
G03X1293500Y1877750I-3711J-27568D01*
G01*
X1266693Y906688D2*
D35*
Y1136698D1*
X1086693Y906688D2*
Y1136698D1*
X1246695Y906688D2*
D36*
Y1136698D1*
X1106691D2*
Y906688D1*
Y1136698D2*
G02X1246695Y1136698I70002J-15D01*
G01*
X1086693D2*
D35*
G02X1266693Y1136698I90000J-5D01*
G01*
X1086693Y906688D2*
G03X1266693Y906688I90000J5D01*
G01*
X1106691D2*
D36*
G03X1246695Y906688I70002J15D01*
G01*
X1141701Y1011689D2*
Y1031697D1*
X1211685D1*
Y1011689D1*
X1141701D1*
Y1046703D2*
X1176693D1*
X1211685D1*
X1141701Y996683D2*
X1176693D1*
X1211685D1*
X1176693Y1046703D2*
Y1071713D1*
Y996683D2*
Y971673D1*
X1031866Y1269390D2*
D73*
X1029964Y1273192D1*
X1026118Y1277039D1*
X1022315Y1278940D1*
X1014666D1*
X1010819Y1277039D1*
X1007017Y1273192D1*
X1005071Y1269390D1*
X1003170Y1263642D1*
Y1254047D1*
X1005071Y1248343D1*
X1007017Y1244496D1*
X1010819Y1240694D1*
X1014666Y1238748D1*
X1022315D1*
X1026118Y1240694D1*
X1029964Y1244496D1*
X1031866Y1248343D1*
X1044217Y1271247D2*
X1048064Y1273192D1*
X1053812Y1278896D1*
Y1238748D1*
X1023153Y801471D2*
X1021252Y805274D1*
X1017405Y809120D1*
X1013602Y811022D1*
X1005953D1*
X1002106Y809120D1*
X998304Y805274D1*
X996358Y801471D1*
X994457Y795723D1*
Y786128D1*
X996358Y780425D1*
X998304Y776578D1*
X1002106Y772775D1*
X1005953Y770830D1*
X1013602D1*
X1017405Y772775D1*
X1021252Y776578D1*
X1023153Y780425D1*
X1037450Y801427D2*
Y803328D1*
X1039351Y807175D1*
X1041252Y809076D1*
X1045099Y810978D1*
X1052748D1*
X1056551Y809076D1*
X1058452Y807175D1*
X1060398Y803328D1*
Y799526D1*
X1058452Y795679D1*
X1054650Y789975D1*
X1035504Y770830D1*
X1062299D1*
X1910960Y1436007D2*
X1907158Y1434106D1*
X1903311Y1430259D1*
X1901410Y1426457D1*
Y1418808D1*
X1903311Y1414961D1*
X1907158Y1411158D1*
X1910960Y1409213D1*
X1916708Y1407312D1*
X1926303D1*
X1932007Y1409213D1*
X1935854Y1411158D1*
X1939656Y1414961D1*
X1941602Y1418808D1*
Y1426457D1*
X1939656Y1430259D1*
X1935854Y1434106D1*
X1932007Y1436007D1*
X1901410Y1459855D2*
X1903311Y1456008D1*
X1907158Y1452206D1*
X1910960Y1450260D1*
X1916709Y1448359D1*
X1926303D1*
X1932007Y1450260D1*
X1935854Y1452206D1*
X1939656Y1456008D1*
X1941602Y1459855D1*
Y1467504D1*
X1939656Y1471307D1*
X1935854Y1475153D1*
X1932007Y1477055D1*
X1926303Y1478956D1*
X1916709D1*
X1910960Y1477055D1*
X1907158Y1475153D1*
X1903311Y1471307D1*
X1901410Y1467504D1*
Y1459855D1*
Y1518102D2*
X1941602D1*
X1901410Y1491307D1*
X1941602D1*
X1909103Y1530453D2*
X1907158Y1534300D1*
X1901454Y1540048D1*
X1941602D1*
X582492Y1712437D2*
Y1681840D1*
X580591Y1676091D1*
X578645Y1674190D1*
X574843Y1672245D1*
X570996D1*
X567193Y1674190D1*
X565292Y1676091D1*
X563347Y1681840D1*
Y1685642D1*
X594843Y1704743D2*
X598690Y1706689D1*
X604438Y1712393D1*
Y1672245D1*
X554448Y2051508D2*
Y2011316D1*
X577396D1*
X589747Y2043814D2*
X593594Y2045760D1*
X599342Y2051463D1*
Y2011316D1*
X786207Y2186004D2*
X803407D1*
X809155Y2187950D1*
X811100Y2189851D1*
X813002Y2193653D1*
Y2197500D1*
X811100Y2201303D1*
X809155Y2203248D1*
X803407Y2205149D1*
X786207D1*
Y2164957D1*
X799604Y2186004D2*
X813002Y2164957D1*
X825353Y2197456D2*
X829200Y2199401D1*
X834948Y2205105D1*
Y2164957D1*
X893723Y760759D2*
X910922D1*
X916670Y762704D1*
X918616Y764605D1*
X920517Y768408D1*
Y772255D1*
X918616Y776057D1*
X916670Y778003D1*
X910922Y779904D1*
X893723D1*
Y739712D1*
X907120Y760759D2*
X920517Y739712D1*
X934814Y770309D2*
Y772210D1*
X936715Y776057D1*
X938617Y777958D1*
X942463Y779860D1*
X950113D1*
X953915Y777958D1*
X955817Y776057D1*
X957762Y772210D1*
Y768408D1*
X955817Y764561D1*
X952014Y758857D1*
X932869Y739712D1*
X959663D1*
X795754Y762790D2*
X812954D1*
X818702Y764736D1*
X820647Y766637D1*
X822549Y770439D1*
Y774286D1*
X820647Y778089D1*
X818702Y780034D1*
X812954Y781935D1*
X795754D1*
Y741743D1*
X809151Y762790D2*
X822549Y741743D1*
X838747Y781891D2*
X859749D1*
X848297Y766593D1*
X854045D1*
X857848Y764691D1*
X859749Y762790D1*
X861695Y757042D1*
Y753239D1*
X859749Y747491D1*
X855947Y743645D1*
X850199Y741743D1*
X844451D1*
X838747Y743645D1*
X836846Y745590D1*
X834900Y749393D1*
X1475472Y2503126D2*
X1492672D1*
X1498420Y2505071D1*
X1500366Y2506973D1*
X1502267Y2510775D1*
Y2514622D1*
X1500366Y2518425D1*
X1498420Y2520370D1*
X1492672Y2522271D1*
X1475472D1*
Y2482079D1*
X1488870Y2503126D2*
X1502267Y2482079D1*
X1514618Y2497378D2*
X1537566D1*
Y2501225D1*
X1535665Y2505071D1*
X1533764Y2506973D1*
X1529917Y2508874D1*
X1524169D1*
X1520366Y2506973D1*
X1516520Y2503126D1*
X1514618Y2497378D1*
Y2493575D1*
X1516520Y2487827D1*
X1520366Y2484025D1*
X1524169Y2482079D1*
X1529917D1*
X1533764Y2484025D1*
X1537566Y2487827D1*
X1570964Y2503126D2*
X1569063Y2506973D1*
X1563315Y2508874D1*
X1557567D1*
X1551819Y2506973D1*
X1549918Y2503126D1*
X1551819Y2499323D1*
X1555666Y2497378D1*
X1565216Y2495477D1*
X1569063Y2493575D1*
X1570964Y2489729D1*
Y2487827D1*
X1569063Y2484025D1*
X1563315Y2482079D1*
X1557567D1*
X1551819Y2484025D1*
X1549918Y2487827D1*
X1583316Y2497378D2*
X1606264D1*
Y2501225D1*
X1604362Y2505071D1*
X1602461Y2506973D1*
X1598614Y2508874D1*
X1592866D1*
X1589064Y2506973D1*
X1585217Y2503126D1*
X1583316Y2497378D1*
Y2493575D1*
X1585217Y2487827D1*
X1589064Y2484025D1*
X1592866Y2482079D1*
X1598614D1*
X1602461Y2484025D1*
X1606264Y2487827D1*
X1624363Y2522271D2*
Y2489729D1*
X1626264Y2484025D1*
X1630111Y2482079D1*
X1633914D1*
X1618615Y2508874D2*
X1632012D1*
X915835Y1520286D2*
X933035D1*
X938783Y1522231D1*
X940729Y1524132D1*
X942630Y1527935D1*
Y1531782D1*
X940729Y1535584D1*
X938783Y1537530D1*
X933035Y1539431D1*
X915835D1*
Y1499239D1*
X929233Y1520286D2*
X942630Y1499239D1*
X954981Y1539431D2*
X981776Y1499239D1*
Y1539431D2*
X954981Y1499239D1*
X779556Y2390442D2*
X775753Y2394289D1*
X770005Y2396190D1*
X762356D1*
X756608Y2394289D1*
X752761Y2390442D1*
Y2386639D1*
X754707Y2382793D1*
X756608Y2380891D1*
X760411Y2378990D1*
X771907Y2375143D1*
X775753Y2373242D1*
X777655Y2371297D1*
X779556Y2367494D1*
Y2361746D1*
X775753Y2357943D1*
X770005Y2355998D1*
X762356D1*
X756608Y2357943D1*
X752761Y2361746D1*
X791907Y2396190D2*
X801502Y2355998D1*
X811053Y2396190D1*
X820603Y2355998D1*
X830198Y2396190D1*
X842549Y2388496D2*
X846396Y2390442D1*
X852144Y2396146D1*
Y2355998D1*
X1145000Y1540293D2*
Y1500101D1*
X1131603Y1540293D2*
X1158398D1*
X1170749D2*
X1197544Y1500101D1*
Y1540293D2*
X1170749Y1500101D1*
X1607781Y747947D2*
Y719251D1*
X1609682Y713503D1*
X1613529Y709701D1*
X1619277Y707755D1*
X1623080D1*
X1628828Y709701D1*
X1632674Y713503D1*
X1634576Y719251D1*
Y747947D1*
X1646927Y740254D2*
X1650774Y742199D1*
X1656522Y747903D1*
Y707755D1*
X1583173Y1339133D2*
X1542981Y1323791D1*
X1583173Y1308492D1*
X1569775Y1314240D2*
Y1333385D1*
X1542981Y1364882D2*
X1583173D1*
X1542981Y1351485D2*
Y1378279D1*
X1583173Y1421228D2*
X1542981D1*
X1583173Y1405929D1*
X1542981Y1390631D1*
X1583173D1*
X1542981Y1458429D2*
Y1433579D1*
X1583173D1*
Y1458429D1*
X1562126Y1433579D2*
Y1448878D1*
X1552531Y1499476D2*
X1548729Y1497575D1*
X1544882Y1493728D1*
X1542981Y1489925D1*
Y1482276D1*
X1544882Y1478429D1*
X1548729Y1474627D1*
X1552531Y1472681D1*
X1558279Y1470780D1*
X1567874D1*
X1573578Y1472681D1*
X1577425Y1474627D1*
X1581227Y1478429D1*
X1583173Y1482276D1*
Y1489925D1*
X1581227Y1493728D1*
X1577425Y1497575D1*
X1573578Y1499476D1*
X1567874D1*
Y1489925D1*
X1583173Y1542469D2*
X1542981Y1527126D1*
X1583173Y1511827D1*
X1569775Y1517575D2*
Y1536721D1*
X1543025Y1558667D2*
Y1579669D1*
X1558323Y1568217D1*
Y1573965D1*
X1560225Y1577768D1*
X1562126Y1579669D1*
X1567874Y1581615D1*
X1571677D1*
X1577425Y1579669D1*
X1581271Y1575867D1*
X1583173Y1570119D1*
Y1564371D1*
X1581271Y1558667D1*
X1579326Y1556766D1*
X1575523Y1554820D1*
X1552575Y1595912D2*
X1550674D1*
X1546827Y1597813D1*
X1544926Y1599714D1*
X1543025Y1603561D1*
Y1611210D1*
X1544926Y1615013D1*
X1546827Y1616914D1*
X1550674Y1618860D1*
X1554477D1*
X1558323Y1616914D1*
X1564027Y1613112D1*
X1583173Y1593966D1*
Y1620761D1*
X1543025Y1642663D2*
X1544926Y1636959D1*
X1548729Y1635014D1*
X1552575D1*
X1556378Y1636959D1*
X1558323Y1640762D1*
X1560225Y1648411D1*
X1562126Y1654159D1*
X1565973Y1657961D1*
X1569775Y1659863D1*
X1575523D1*
X1579326Y1657961D1*
X1581271Y1656060D1*
X1583173Y1650312D1*
Y1642663D1*
X1581271Y1636959D1*
X1579326Y1635014D1*
X1575523Y1633112D1*
X1569775D1*
X1565973Y1635014D1*
X1562126Y1638860D1*
X1560225Y1644564D1*
X1558323Y1652213D1*
X1556378Y1656060D1*
X1552575Y1657961D1*
X1548729D1*
X1544926Y1656060D1*
X1543025Y1650312D1*
Y1642663D1*
X1564027Y1672214D2*
Y1689458D1*
X1562126Y1695162D1*
X1560180Y1697107D1*
X1556378Y1699009D1*
X1550630D1*
X1546827Y1697107D1*
X1544882Y1695162D1*
X1542981Y1689458D1*
Y1672214D1*
X1583173D1*
X1563099Y1711360D2*
Y1733468D1*
X1564027Y1745819D2*
Y1763063D1*
X1562126Y1768767D1*
X1560180Y1770713D1*
X1556378Y1772614D1*
X1550630D1*
X1546827Y1770713D1*
X1544882Y1768767D1*
X1542981Y1763063D1*
Y1745819D1*
X1583173D1*
X1542981Y1784965D2*
X1571677D1*
X1577425Y1786867D1*
X1581227Y1790713D1*
X1583173Y1796462D1*
Y1800264D1*
X1581227Y1806012D1*
X1577425Y1809859D1*
X1571677Y1811760D1*
X1542981D1*
X806477Y1929627D2*
Y1900931D1*
X808378Y1895183D1*
X812225Y1891381D1*
X817973Y1889435D1*
X821776D1*
X827524Y1891381D1*
X831371Y1895183D1*
X833272Y1900931D1*
Y1929627D1*
X847569Y1920032D2*
Y1921933D1*
X849470Y1925780D1*
X851371Y1927682D1*
X855218Y1929583D1*
X862867D1*
X866670Y1927682D1*
X868571Y1925780D1*
X870517Y1921933D1*
Y1918131D1*
X868571Y1914284D1*
X864769Y1908580D1*
X845623Y1889435D1*
X872418D1*
X983790Y1925551D2*
X958897D1*
Y1885359D1*
Y1906406D2*
X974195D1*
X1009539Y1925551D2*
Y1885359D1*
X996142Y1925551D2*
X1022936D1*
X1037233Y1915956D2*
Y1917858D1*
X1039134Y1921704D1*
X1041036Y1923606D1*
X1044882Y1925507D1*
X1052532D1*
X1056334Y1923606D1*
X1058236Y1921704D1*
X1060181Y1917858D1*
Y1914055D1*
X1058236Y1910208D1*
X1054433Y1904505D1*
X1035288Y1885359D1*
X1062082D1*
X1078280Y1925507D2*
X1099283D1*
X1087831Y1910208D1*
X1093579D1*
X1097382Y1908307D1*
X1099283Y1906406D1*
X1101228Y1900658D1*
Y1896855D1*
X1099283Y1891107D1*
X1095480Y1887260D1*
X1089732Y1885359D1*
X1083984D1*
X1078280Y1887260D1*
X1076379Y1889206D1*
X1074434Y1893008D1*
X1115525Y1915956D2*
Y1917858D1*
X1117427Y1921704D1*
X1119328Y1923606D1*
X1123175Y1925507D1*
X1130824D1*
X1134626Y1923606D1*
X1136528Y1921704D1*
X1138473Y1917858D1*
Y1914055D1*
X1136528Y1910208D1*
X1132725Y1904505D1*
X1113580Y1885359D1*
X1140374D1*
X1152726Y1906406D2*
X1169926D1*
X1175674Y1908351D1*
X1177619Y1910253D1*
X1179520Y1914055D1*
Y1917902D1*
X1177619Y1921704D1*
X1175674Y1923650D1*
X1169926Y1925551D1*
X1152726D1*
Y1885359D1*
X1166123Y1906406D2*
X1179520Y1885359D1*
X1191872Y1925551D2*
Y1885359D1*
X1214820D1*
X1149482Y788534D2*
X1176277Y748342D1*
Y788534D2*
X1149482Y748342D1*
X1188628Y788534D2*
Y748342D1*
X1211576D1*
X544186Y666496D2*
D74*
X525008Y716736D1*
X505885Y666496D1*
X513070Y683242D2*
X537001D1*
X559626Y699989D2*
Y666496D1*
Y685619D2*
X562057Y692804D1*
X566811Y697613D1*
X571619Y699989D1*
X578804D1*
X622928Y716736D2*
Y666496D1*
Y692804D2*
X618175Y697613D1*
X613367Y699989D1*
X606182D1*
X601428Y697613D1*
X596620Y692804D1*
X594243Y685619D1*
Y680866D1*
X596620Y673681D1*
X601428Y668928D1*
X606182Y666496D1*
X613367D1*
X618175Y668928D1*
X622928Y673681D1*
X638368Y699989D2*
Y676057D1*
X640744Y668928D1*
X645553Y666496D1*
X652738D1*
X657491Y668928D1*
X664676Y676057D1*
Y699989D2*
Y666496D1*
X680115Y716736D2*
X682492Y714359D1*
X684924Y716736D1*
X682492Y719168D1*
X680115Y716736D1*
X682492Y699989D2*
Y666496D1*
X700363Y699989D2*
Y666496D1*
Y690427D2*
X707548Y697613D1*
X712356Y699989D1*
X719486D1*
X724294Y697613D1*
X726671Y690427D1*
Y666496D1*
X754049Y699989D2*
X749295Y697613D1*
X744487Y692804D1*
X742110Y685619D1*
Y680866D1*
X744487Y673681D1*
X749295Y668928D1*
X754049Y666496D1*
X761234D1*
X766042Y668928D1*
X770795Y673681D1*
X773227Y680866D1*
Y685619D1*
X770795Y692804D1*
X766042Y697613D1*
X761234Y699989D1*
X754049D1*
X873137Y704798D2*
X870761Y709551D1*
X865952Y714359D1*
X861199Y716736D1*
X851637D1*
X846829Y714359D1*
X842076Y709551D1*
X839644Y704798D1*
X837267Y697613D1*
Y685619D1*
X839644Y678489D1*
X842076Y673681D1*
X846829Y668928D1*
X851637Y666496D1*
X861199D1*
X865952Y668928D1*
X870761Y673681D1*
X873137Y678489D1*
Y685619D1*
X861199D1*
X888576Y690427D2*
X910132D1*
X917261Y692804D1*
X919693Y695236D1*
X922070Y699989D1*
Y707174D1*
X919693Y711927D1*
X917261Y714359D1*
X910132Y716736D1*
X888576D1*
Y666496D1*
X937509Y716736D2*
Y666496D1*
X952948Y716736D2*
Y666496D1*
X974503D1*
X981688Y668928D1*
X984065Y671304D1*
X986442Y676057D1*
Y683242D1*
X984065Y688051D1*
X981688Y690427D1*
X974503Y692804D1*
X981688Y695236D1*
X984065Y697613D1*
X986442Y702366D1*
Y707174D1*
X984065Y711927D1*
X981688Y714359D1*
X974503Y716736D1*
X952948D1*
Y692804D2*
X974503D1*
X1001881Y691588D2*
X1029516D1*
X1044955Y716736D2*
Y680866D1*
X1047331Y673681D1*
X1052140Y668928D1*
X1059325Y666496D1*
X1064078D1*
X1071263Y668928D1*
X1076072Y673681D1*
X1078448Y680866D1*
Y716736D1*
X1127381Y709551D2*
X1122628Y714359D1*
X1115443Y716736D1*
X1105881D1*
X1098696Y714359D1*
X1093887Y709551D1*
Y704798D1*
X1096319Y699989D1*
X1098696Y697613D1*
X1103449Y695236D1*
X1117819Y690427D1*
X1122628Y688051D1*
X1125004Y685619D1*
X1127381Y680866D1*
Y673681D1*
X1122628Y668928D1*
X1115443Y666496D1*
X1105881D1*
X1098696Y668928D1*
X1093887Y673681D1*
X1142820Y716736D2*
Y666496D1*
X1164375D1*
X1171560Y668928D1*
X1173937Y671304D1*
X1176313Y676057D1*
Y683242D1*
X1173937Y688051D1*
X1171560Y690427D1*
X1164375Y692804D1*
X1171560Y695236D1*
X1173937Y697613D1*
X1176313Y702366D1*
Y707174D1*
X1173937Y711927D1*
X1171560Y714359D1*
X1164375Y716736D1*
X1142820D1*
Y692804D2*
X1164375D1*
X1278655Y666496D2*
X1259477Y716736D1*
X1240354Y666496D1*
X1247539Y683242D2*
X1271470D1*
X1322780Y716736D2*
Y666496D1*
Y692804D2*
X1318026Y697613D1*
X1313218Y699989D1*
X1306033D1*
X1301280Y697613D1*
X1296471Y692804D1*
X1294095Y685619D1*
Y680866D1*
X1296471Y673681D1*
X1301280Y668928D1*
X1306033Y666496D1*
X1313218D1*
X1318026Y668928D1*
X1322780Y673681D1*
X1366904Y699989D2*
Y666496D1*
Y692804D2*
X1362150Y697613D1*
X1357342Y699989D1*
X1350212D1*
X1345404Y697613D1*
X1340651Y692804D1*
X1338219Y685619D1*
Y680866D1*
X1340651Y673681D1*
X1345404Y668928D1*
X1350212Y666496D1*
X1357342D1*
X1362150Y668928D1*
X1366904Y673681D1*
X1382343Y699989D2*
Y649749D1*
Y692804D2*
X1387151Y697557D1*
X1391905Y699989D1*
X1399090D1*
X1403898Y697557D1*
X1408651Y692804D1*
X1411083Y685619D1*
Y680811D1*
X1408651Y673681D1*
X1403898Y668872D1*
X1399090Y666496D1*
X1391905D1*
X1387151Y668872D1*
X1382343Y673681D1*
X1433707Y716736D2*
Y676057D1*
X1436084Y668928D1*
X1440892Y666496D1*
X1445646D1*
X1426522Y699989D2*
X1443269D1*
X1461085Y685619D2*
X1489770D1*
Y690427D1*
X1487393Y695236D1*
X1485017Y697613D1*
X1480208Y699989D1*
X1473023D1*
X1468270Y697613D1*
X1463461Y692804D1*
X1461085Y685619D1*
Y680866D1*
X1463461Y673681D1*
X1468270Y668928D1*
X1473023Y666496D1*
X1480208D1*
X1485017Y668928D1*
X1489770Y673681D1*
X1505209Y699989D2*
Y666496D1*
Y685619D2*
X1507641Y692804D1*
X1512394Y697613D1*
X1517202Y699989D1*
X1524387D1*
X531924Y630788D2*
D73*
X507030D1*
Y590596D1*
Y611642D2*
X522329D1*
X553825Y617390D2*
X550023Y615489D1*
X546176Y611642D1*
X544275Y605894D1*
Y602092D1*
X546176Y596344D1*
X550023Y592541D1*
X553825Y590596D1*
X559574D1*
X563420Y592541D1*
X567223Y596344D1*
X569168Y602092D1*
Y605894D1*
X567223Y611642D1*
X563420Y615489D1*
X559574Y617390D1*
X553825D1*
X581520D2*
Y590596D1*
Y605894D2*
X583465Y611642D1*
X587268Y615489D1*
X591114Y617390D1*
X596863D1*
X678736Y590596D2*
X663393Y630788D1*
X648095Y590596D1*
X653843Y603993D2*
X672988D1*
X691088Y611642D2*
X708287D1*
X714035Y613588D1*
X715981Y615489D1*
X717882Y619291D1*
Y623138D1*
X715981Y626941D1*
X714035Y628886D1*
X708287Y630788D1*
X691088D1*
Y590596D1*
X704485Y611642D2*
X717882Y590596D1*
X749379D2*
Y630743D1*
X730234Y603993D1*
X758930D1*
X780832Y630743D2*
X775128Y628842D1*
X773182Y625039D1*
Y621193D1*
X775128Y617390D1*
X778930Y615445D1*
X786580Y613543D1*
X792328Y611642D1*
X796130Y607795D1*
X798031Y603993D1*
Y598245D1*
X796130Y594442D1*
X794229Y592497D1*
X788481Y590596D1*
X780832D1*
X775128Y592497D1*
X773182Y594442D1*
X771281Y598245D1*
Y603993D1*
X773182Y607795D1*
X777029Y611642D1*
X782733Y613543D1*
X790382Y615445D1*
X794229Y617390D1*
X796130Y621193D1*
Y625039D1*
X794229Y628842D1*
X788481Y630743D1*
X780832D1*
X819933D2*
X814230Y628842D1*
X812284Y625039D1*
Y621193D1*
X814230Y617390D1*
X818032Y615445D1*
X825681Y613543D1*
X831429Y611642D1*
X835232Y607795D1*
X837133Y603993D1*
Y598245D1*
X835232Y594442D1*
X833331Y592497D1*
X827583Y590596D1*
X819933D1*
X814230Y592497D1*
X812284Y594442D1*
X810383Y598245D1*
Y603993D1*
X812284Y607795D1*
X816131Y611642D1*
X821835Y613543D1*
X829484Y615445D1*
X833331Y617390D1*
X835232Y621193D1*
Y625039D1*
X833331Y628842D1*
X827583Y630743D1*
X819933D1*
X903664Y630788D2*
X899861D1*
X896015Y628886D1*
X894113Y623138D1*
Y590596D1*
X888365Y617390D2*
X901763D1*
X916015Y630788D2*
X917917Y628886D1*
X919862Y630788D1*
X917917Y632733D1*
X916015Y630788D1*
X917917Y617390D2*
Y590596D1*
X932214Y617390D2*
Y590596D1*
Y605894D2*
X934159Y611642D1*
X937962Y615489D1*
X941808Y617390D1*
X947556D1*
X959908D2*
Y590596D1*
Y609741D2*
X965656Y615489D1*
X969503Y617390D1*
X975206D1*
X979053Y615489D1*
X980954Y609741D1*
Y590596D1*
Y609741D2*
X986702Y615489D1*
X990549Y617390D1*
X996253D1*
X1000100Y615489D1*
X1002045Y609741D1*
Y590596D1*
X1014397Y617390D2*
X1022046Y590596D1*
X1029695Y617390D1*
X1037345Y590596D1*
X1044994Y617390D1*
X1080293D2*
Y590596D1*
Y611642D2*
X1076491Y615489D1*
X1072644Y617390D1*
X1066940D1*
X1063093Y615489D1*
X1059291Y611642D1*
X1057345Y605894D1*
Y602092D1*
X1059291Y596344D1*
X1063093Y592541D1*
X1066940Y590596D1*
X1072644D1*
X1076491Y592541D1*
X1080293Y596344D1*
X1092645Y617390D2*
Y590596D1*
Y605894D2*
X1094590Y611642D1*
X1098393Y615489D1*
X1102239Y617390D1*
X1107987D1*
X1120339Y605894D2*
X1143287D1*
Y609741D1*
X1141385Y613588D1*
X1139484Y615489D1*
X1135637Y617390D1*
X1129889D1*
X1126087Y615489D1*
X1122240Y611642D1*
X1120339Y605894D1*
Y602092D1*
X1122240Y596344D1*
X1126087Y592541D1*
X1129889Y590596D1*
X1135637D1*
X1139484Y592541D1*
X1143287Y596344D1*
X1194519Y630788D2*
Y590596D1*
Y611642D2*
X1198366Y615489D1*
X1202168Y617390D1*
X1207916D1*
X1211719Y615489D1*
X1215566Y611642D1*
X1217467Y605894D1*
Y602092D1*
X1215566Y596344D1*
X1211719Y592541D1*
X1207916Y590596D1*
X1202168D1*
X1198366Y592541D1*
X1194519Y596344D1*
X1231764Y617390D2*
X1243216Y590596D1*
X1239413Y582946D1*
X1235566Y579099D1*
X1231764Y577198D1*
X1229818D1*
X1254712Y617390D2*
X1243216Y590596D1*
X1305944Y630788D2*
X1315539Y590596D1*
X1325089Y630788D1*
X1334640Y590596D1*
X1344235Y630788D1*
X1379534Y617390D2*
Y590596D1*
Y611642D2*
X1375731Y615489D1*
X1371885Y617390D1*
X1366181D1*
X1362334Y615489D1*
X1358531Y611642D1*
X1356586Y605894D1*
Y602092D1*
X1358531Y596344D1*
X1362334Y592541D1*
X1366181Y590596D1*
X1371885D1*
X1375731Y592541D1*
X1379534Y596344D1*
X1391885Y617390D2*
X1403381Y590596D1*
X1414833Y617390D1*
X1427185Y605894D2*
X1450132D1*
Y609741D1*
X1448231Y613588D1*
X1446330Y615489D1*
X1442483Y617390D1*
X1436735D1*
X1432933Y615489D1*
X1429086Y611642D1*
X1427185Y605894D1*
Y602092D1*
X1429086Y596344D1*
X1432933Y592541D1*
X1436735Y590596D1*
X1442483D1*
X1446330Y592541D1*
X1450132Y596344D1*
X1464429Y617390D2*
X1475881Y590596D1*
X1472079Y582946D1*
X1468232Y579099D1*
X1464429Y577198D1*
X1462484D1*
X1487377Y617390D2*
X1475881Y590596D1*
X1499729Y630788D2*
Y590596D1*
X1513126D1*
X1518874Y592541D1*
X1522721Y596344D1*
X1524622Y600190D1*
X1526523Y605894D1*
Y615489D1*
X1524622Y621237D1*
X1522721Y625039D1*
X1518874Y628886D1*
X1513126Y630788D1*
X1499729D1*
X1538875D2*
X1540776Y628886D1*
X1542721Y630788D1*
X1540776Y632733D1*
X1538875Y630788D1*
X1540776Y617390D2*
Y590596D1*
X1555073Y617390D2*
Y577198D1*
Y611642D2*
X1558920Y615445D1*
X1562722Y617390D1*
X1568470D1*
X1572317Y615445D1*
X1576119Y611642D1*
X1578065Y605894D1*
Y602047D1*
X1576119Y596344D1*
X1572317Y592497D1*
X1568470Y590596D1*
X1562722D1*
X1558920Y592497D1*
X1555073Y596344D1*
X1599967Y617390D2*
X1596164Y615489D1*
X1592318Y611642D1*
X1590416Y605894D1*
Y602092D1*
X1592318Y596344D1*
X1596164Y592541D1*
X1599967Y590596D1*
X1605715D1*
X1609562Y592541D1*
X1613364Y596344D1*
X1615310Y602092D1*
Y605894D1*
X1613364Y611642D1*
X1609562Y615489D1*
X1605715Y617390D1*
X1599967D1*
X1627661Y630788D2*
Y590596D1*
X1640013Y605894D2*
X1662960D1*
Y609741D1*
X1661059Y613588D1*
X1659158Y615489D1*
X1655311Y617390D1*
X1649563D1*
X1645761Y615489D1*
X1641914Y611642D1*
X1640013Y605894D1*
Y602092D1*
X1641914Y596344D1*
X1645761Y592541D1*
X1649563Y590596D1*
X1655311D1*
X1659158Y592541D1*
X1662960Y596344D1*
X835861Y2495727D2*
X853061D1*
X858809Y2497672D1*
X860755Y2499574D1*
X862656Y2503376D1*
Y2507223D1*
X860755Y2511026D1*
X858809Y2512971D1*
X853061Y2514872D1*
X835861D1*
Y2474680D1*
X849259Y2495727D2*
X862656Y2474680D1*
X875007Y2501475D2*
Y2482330D1*
X876909Y2476626D1*
X880755Y2474680D1*
X886503D1*
X890306Y2476626D1*
X896054Y2482330D1*
Y2501475D2*
Y2474680D1*
X908405Y2501475D2*
Y2474680D1*
Y2493826D2*
X914153Y2499574D1*
X918000Y2501475D1*
X923704D1*
X927551Y2499574D1*
X929452Y2493826D1*
Y2474680D1*
X1011281Y2511976D2*
X980684Y2494732D1*
X1011281Y2477532D1*
X1023633Y2494754D2*
X1045741D1*
X1058092D2*
X1080200D1*
X1092551D2*
X1114659D1*
X1127010Y2511976D2*
X1157608Y2494732D1*
X1127010Y2477532D1*
X1208840Y2493826D2*
X1226084D1*
X1231788Y2495727D1*
X1233733Y2497672D1*
X1235634Y2501475D1*
Y2507223D1*
X1233733Y2511026D1*
X1231788Y2512971D1*
X1226084Y2514872D1*
X1208840D1*
Y2474680D1*
X1247986Y2501475D2*
Y2474680D1*
Y2489979D2*
X1249931Y2495727D1*
X1253734Y2499574D1*
X1257581Y2501475D1*
X1263329D1*
X1285231D2*
X1281428Y2499574D1*
X1277581Y2495727D1*
X1275680Y2489979D1*
Y2486176D1*
X1277581Y2480428D1*
X1281428Y2476626D1*
X1285231Y2474680D1*
X1290979D1*
X1294825Y2476626D1*
X1298628Y2480428D1*
X1300573Y2486176D1*
Y2489979D1*
X1298628Y2495727D1*
X1294825Y2499574D1*
X1290979Y2501475D1*
X1285231D1*
X1335873Y2499574D2*
Y2468932D1*
X1333971Y2463229D1*
X1332070Y2461283D1*
X1328223Y2459382D1*
X1322475D1*
X1318673Y2461283D1*
X1335873Y2493826D2*
X1332070Y2497628D1*
X1328223Y2499574D1*
X1322475D1*
X1318673Y2497628D1*
X1314826Y2493826D1*
X1312925Y2488078D1*
Y2484231D1*
X1314826Y2478527D1*
X1318673Y2474680D1*
X1322475Y2472779D1*
X1328223D1*
X1332070Y2474680D1*
X1335873Y2478527D1*
X508085Y553252D2*
Y513060D1*
Y532206D2*
X513833Y537954D1*
X517680Y539855D1*
X523428D1*
X527231Y537954D1*
X529132Y532206D1*
Y513060D1*
X547231Y553252D2*
Y520710D1*
X549132Y515006D1*
X552979Y513060D1*
X556782D1*
X541483Y539855D2*
X554881D1*
X574881Y553252D2*
Y520710D1*
X576782Y515006D1*
X580629Y513060D1*
X584432D1*
X569133Y539855D2*
X582531D1*
X596783D2*
Y499663D1*
Y534107D2*
X600630Y537910D1*
X604432Y539855D1*
X610181D1*
X614027Y537910D1*
X617830Y534107D1*
X619775Y528359D1*
Y524512D1*
X617830Y518809D1*
X614027Y514962D1*
X610181Y513060D1*
X604432D1*
X600630Y514962D1*
X596783Y518809D1*
X653173Y534107D2*
X651272Y537954D1*
X645524Y539855D1*
X639776D1*
X634028Y537954D1*
X632127Y534107D1*
X634028Y530305D1*
X637875Y528359D1*
X647425Y526458D1*
X651272Y524557D1*
X653173Y520710D1*
Y518809D1*
X651272Y515006D1*
X645524Y513060D1*
X639776D1*
X634028Y515006D1*
X632127Y518809D1*
X667470Y539855D2*
X665525Y537910D1*
X667470Y536008D1*
X669372Y537910D1*
X667470Y539855D1*
Y516907D2*
X665525Y514962D1*
X667470Y513060D1*
X669372Y514962D1*
X667470Y516907D1*
X681723Y513060D2*
X708518Y553208D1*
X720869Y513060D2*
X747664Y553208D1*
X782963Y537954D2*
Y507312D1*
X781062Y501609D1*
X779160Y499663D1*
X775314Y497762D1*
X769566D1*
X765763Y499663D1*
X782963Y532206D2*
X779160Y536008D1*
X775314Y537954D1*
X769566D1*
X765763Y536008D1*
X761916Y532206D1*
X760015Y526458D1*
Y522611D1*
X761916Y516907D1*
X765763Y513060D1*
X769566Y511159D1*
X775314D1*
X779160Y513060D1*
X782963Y516907D1*
X795314Y553252D2*
X797216Y551351D1*
X799161Y553252D1*
X797216Y555198D1*
X795314Y553252D1*
X797216Y539855D2*
Y513060D1*
X817261Y553252D2*
Y520710D1*
X819162Y515006D1*
X823009Y513060D1*
X826811D1*
X811513Y539855D2*
X824910D1*
X839163Y553252D2*
Y513060D1*
Y532206D2*
X844911Y537954D1*
X848757Y539855D1*
X854505D1*
X858308Y537954D1*
X860209Y532206D1*
Y513060D1*
X872561Y539855D2*
Y520710D1*
X874462Y515006D1*
X878309Y513060D1*
X884057D1*
X887859Y515006D1*
X893607Y520710D1*
Y539855D2*
Y513060D1*
X905959Y553252D2*
Y513060D1*
Y534107D2*
X909805Y537954D1*
X913608Y539855D1*
X919356D1*
X923158Y537954D1*
X927005Y534107D1*
X928906Y528359D1*
Y524557D1*
X927005Y518809D1*
X923158Y515006D1*
X919356Y513060D1*
X913608D1*
X909805Y515006D1*
X905959Y518809D1*
X943159Y516907D2*
X941258Y514962D1*
X943159Y513060D1*
X945105Y514962D1*
X943159Y516907D1*
X980448Y534107D2*
X976601Y537954D1*
X972755Y539855D1*
X967051D1*
X963204Y537954D1*
X959402Y534107D1*
X957456Y528359D1*
Y524557D1*
X959402Y518809D1*
X963204Y515006D1*
X967051Y513060D1*
X972755D1*
X976601Y515006D1*
X980448Y518809D1*
X1002350Y539855D2*
X998548Y537954D1*
X994701Y534107D1*
X992800Y528359D1*
Y524557D1*
X994701Y518809D1*
X998548Y515006D1*
X1002350Y513060D1*
X1008098D1*
X1011945Y515006D1*
X1015747Y518809D1*
X1017693Y524557D1*
Y528359D1*
X1015747Y534107D1*
X1011945Y537954D1*
X1008098Y539855D1*
X1002350D1*
X1030044D2*
Y513060D1*
Y532206D2*
X1035792Y537954D1*
X1039639Y539855D1*
X1045343D1*
X1049190Y537954D1*
X1051091Y532206D1*
Y513060D1*
Y532206D2*
X1056839Y537954D1*
X1060686Y539855D1*
X1066390D1*
X1070236Y537954D1*
X1072182Y532206D1*
Y513060D1*
X1084533D2*
X1111328Y553208D1*
X1137077Y553252D2*
Y513060D1*
X1123679Y553252D2*
X1150474D1*
X1162825Y539855D2*
X1170475Y513060D1*
X1178124Y539855D1*
X1185773Y513060D1*
X1193423Y539855D1*
X1205774Y553252D2*
X1207675Y551351D1*
X1209621Y553252D1*
X1207675Y555198D1*
X1205774Y553252D1*
X1207675Y539855D2*
Y513060D1*
X1221972Y553252D2*
Y513060D1*
X1234324Y553252D2*
X1236225Y551351D1*
X1238170Y553252D1*
X1236225Y555198D1*
X1234324Y553252D1*
X1236225Y539855D2*
Y513060D1*
X1273470Y537954D2*
Y507312D1*
X1271568Y501609D1*
X1269667Y499663D1*
X1265820Y497762D1*
X1260072D1*
X1256270Y499663D1*
X1273470Y532206D2*
X1269667Y536008D1*
X1265820Y537954D1*
X1260072D1*
X1256270Y536008D1*
X1252423Y532206D1*
X1250522Y526458D1*
Y522611D1*
X1252423Y516907D1*
X1256270Y513060D1*
X1260072Y511159D1*
X1265820D1*
X1269667Y513060D1*
X1273470Y516907D1*
X1285821Y553252D2*
Y513060D1*
Y532206D2*
X1291569Y537954D1*
X1295416Y539855D1*
X1301164D1*
X1304966Y537954D1*
X1306868Y532206D1*
Y513060D1*
X1324967Y553252D2*
Y520710D1*
X1326868Y515006D1*
X1330715Y513060D1*
X1334518D1*
X1319219Y539855D2*
X1332616D1*
X1346869Y533134D2*
X1368977D1*
X1381328Y553252D2*
Y513060D1*
X1404276D1*
X1426178Y539855D2*
X1422376Y537954D1*
X1418529Y534107D1*
X1416628Y528359D1*
Y524557D1*
X1418529Y518809D1*
X1422376Y515006D1*
X1426178Y513060D1*
X1431926D1*
X1435773Y515006D1*
X1439575Y518809D1*
X1441521Y524557D1*
Y528359D1*
X1439575Y534107D1*
X1435773Y537954D1*
X1431926Y539855D1*
X1426178D1*
X1476820Y537954D2*
Y507312D1*
X1474919Y501609D1*
X1473018Y499663D1*
X1469171Y497762D1*
X1463423D1*
X1459620Y499663D1*
X1476820Y532206D2*
X1473018Y536008D1*
X1469171Y537954D1*
X1463423D1*
X1459620Y536008D1*
X1455774Y532206D1*
X1453872Y526458D1*
Y522611D1*
X1455774Y516907D1*
X1459620Y513060D1*
X1463423Y511159D1*
X1469171D1*
X1473018Y513060D1*
X1476820Y516907D1*
X1489172Y553252D2*
X1491073Y551351D1*
X1493018Y553252D1*
X1491073Y555198D1*
X1489172Y553252D1*
X1491073Y539855D2*
Y513060D1*
X1528362Y534107D2*
X1524515Y537954D1*
X1520668Y539855D1*
X1514965D1*
X1511118Y537954D1*
X1507315Y534107D1*
X1505370Y528359D1*
Y524557D1*
X1507315Y518809D1*
X1511118Y515006D1*
X1514965Y513060D1*
X1520668D1*
X1524515Y515006D1*
X1528362Y518809D1*
X1540713Y513060D2*
X1567508Y553208D1*
X1610501Y513060D2*
X1595158Y553252D1*
X1579859Y513060D1*
X1585607Y526458D2*
X1604753D1*
X1622852Y534107D2*
X1640052D1*
X1645800Y536053D1*
X1647746Y537954D1*
X1649647Y541756D1*
Y545603D1*
X1647746Y549406D1*
X1645800Y551351D1*
X1640052Y553252D1*
X1622852D1*
Y513060D1*
X1636250Y534107D2*
X1649647Y513060D1*
X1681144D2*
Y553208D1*
X1661998Y526458D1*
X1690694D1*
X1712596Y553208D2*
X1706892Y551307D1*
X1704947Y547504D1*
Y543658D1*
X1706892Y539855D1*
X1710695Y537910D1*
X1718344Y536008D1*
X1724092Y534107D1*
X1727895Y530260D1*
X1729796Y526458D1*
Y520710D1*
X1727895Y516907D1*
X1725994Y514962D1*
X1720246Y513060D1*
X1712596D1*
X1706892Y514962D1*
X1704947Y516907D1*
X1703046Y520710D1*
Y526458D1*
X1704947Y530260D1*
X1708794Y534107D1*
X1714498Y536008D1*
X1722147Y537910D1*
X1725994Y539855D1*
X1727895Y543658D1*
Y547504D1*
X1725994Y551307D1*
X1720246Y553208D1*
X1712596D1*
X1751698D2*
X1745994Y551307D1*
X1744049Y547504D1*
Y543658D1*
X1745994Y539855D1*
X1749797Y537910D1*
X1757446Y536008D1*
X1763194Y534107D1*
X1766997Y530260D1*
X1768898Y526458D1*
Y520710D1*
X1766997Y516907D1*
X1765095Y514962D1*
X1759347Y513060D1*
X1751698D1*
X1745994Y514962D1*
X1744049Y516907D1*
X1742148Y520710D1*
Y526458D1*
X1744049Y530260D1*
X1747896Y534107D1*
X1753599Y536008D1*
X1761249Y537910D1*
X1765095Y539855D1*
X1766997Y543658D1*
Y547504D1*
X1765095Y551307D1*
X1759347Y553208D1*
X1751698D1*
M02*
