G04 DipTrace 3.3.1.0*
G04 GPIB-USBAR488v1.012Mar2019.GTS*
%MOIN*%
G04 #@! TF.FileFunction,Soldermask,Top*
G04 #@! TF.Part,Single*
%AMOUTLINE0*
4,1,8,
0.010709,0.025866,
0.025866,0.010709,
0.025866,-0.010709,
0.010709,-0.025866,
-0.010709,-0.025866,
-0.025866,-0.010709,
-0.025866,0.010709,
-0.010709,0.025866,
0.010709,0.025866,
0*%
%AMOUTLINE1*
4,1,8,
-0.010709,-0.025866,
-0.025866,-0.010709,
-0.025866,0.010709,
-0.010709,0.025866,
0.010709,0.025866,
0.025866,0.010709,
0.025866,-0.010709,
0.010709,-0.025866,
-0.010709,-0.025866,
0*%
%AMOUTLINE2*
4,1,8,
0.012629,-0.030487,
-0.012629,-0.030487,
-0.030487,-0.012629,
-0.030487,0.012629,
-0.012629,0.030487,
0.012629,0.030487,
0.030487,0.012629,
0.030487,-0.012629,
0.012629,-0.030487,
0*%
%AMOUTLINE3*
4,1,8,
0.030487,0.012629,
0.030487,-0.012629,
0.012629,-0.030487,
-0.012629,-0.030487,
-0.030487,-0.012629,
-0.030487,0.012629,
-0.012629,0.030487,
0.012629,0.030487,
0.030487,0.012629,
0*%
%AMOUTLINE4*
4,1,8,
0.030486,-0.012625,
0.012625,-0.030486,
-0.012625,-0.030486,
-0.030486,-0.012625,
-0.030486,0.012625,
-0.012625,0.030486,
0.012625,0.030486,
0.030486,0.012625,
0.030486,-0.012625,
0*%
%AMOUTLINE5*
4,1,8,
-0.030486,0.012625,
-0.012625,0.030486,
0.012625,0.030486,
0.030486,0.012625,
0.030486,-0.012625,
0.012625,-0.030486,
-0.012625,-0.030486,
-0.030486,-0.012625,
-0.030486,0.012625,
0*%
%ADD27C,0.059055*%
%ADD29C,0.074*%
%ADD37C,0.05216*%
%ADD40C,0.153543*%
%ADD51R,0.02378X0.078898*%
%ADD53C,0.071024*%
%ADD55R,0.071024X0.071024*%
%ADD57C,0.071024*%
%ADD63O,0.114331X0.074961*%
%ADD65O,0.055276X0.051339*%
%ADD67C,0.071811*%
%ADD76OUTLINE0*%
%ADD77OUTLINE1*%
%ADD78OUTLINE2*%
%ADD79OUTLINE3*%
%ADD80OUTLINE4*%
%ADD81OUTLINE5*%
%FSLAX26Y26*%
G04*
G70*
G90*
G75*
G01*
G04 TopMask*
%LPD*%
D76*
X1026693Y1076693D3*
Y1176693D3*
D77*
Y976693D3*
Y876693D3*
D67*
X2191071Y1008976D3*
Y1094016D3*
Y1179055D3*
Y1264094D3*
Y1349134D3*
Y1434173D3*
Y1519213D3*
Y1604252D3*
Y1689291D3*
Y1774331D3*
Y1859370D3*
Y1944409D3*
X2022173D3*
Y1859370D3*
Y1774331D3*
Y1689291D3*
Y1604252D3*
Y1519213D3*
Y1434173D3*
Y1349134D3*
Y1264094D3*
Y1179055D3*
Y1094016D3*
Y1008976D3*
D40*
X2106622Y555433D3*
Y2397953D3*
D65*
X743346Y1539685D3*
X696102Y1508189D3*
X743346Y1476693D3*
X696102Y1445197D3*
X743346Y1413701D3*
D63*
X544528Y1620394D3*
Y1332992D3*
D27*
X701693Y1826693D3*
Y2226693D3*
D78*
X876693Y2176693D3*
X1276693D3*
D79*
X926693Y833226D3*
Y1233226D3*
X826693Y833226D3*
Y1233226D3*
D29*
X1426693Y2426693D3*
X1682693D3*
X1426693Y2248693D3*
X1682693D3*
D80*
X976693Y1401694D3*
X1076693D3*
D57*
X1176693Y2376693D3*
X1076693D3*
X976693D3*
D81*
X1276693Y1401692D3*
X1176693D3*
D55*
X1401693Y2126693D3*
D53*
Y2026693D3*
Y1926693D3*
Y1826693D3*
Y1726693D3*
Y1626693D3*
Y1526693D3*
Y1426693D3*
Y1326693D3*
Y1226693D3*
Y1126693D3*
Y1026693D3*
Y926693D3*
Y826693D3*
X1701693D3*
Y926693D3*
Y1026693D3*
Y1126693D3*
Y1226693D3*
Y1326693D3*
Y1426693D3*
Y1526693D3*
Y1626693D3*
Y1726693D3*
Y1826693D3*
Y1926693D3*
Y2026693D3*
Y2126693D3*
D51*
X1255114Y2047054D3*
X1229524D3*
X1203933D3*
X1178343D3*
X1152752D3*
X1127161D3*
X1101571D3*
X1075980D3*
X1050390D3*
X1024799D3*
X999209D3*
X973618D3*
X948028D3*
X922437D3*
Y1763581D3*
X948028Y1763589D3*
X973618D3*
X999209D3*
X1024799D3*
X1050390D3*
X1075980D3*
X1101571D3*
X1127161D3*
X1152752D3*
X1178343D3*
X1203933D3*
X1229524D3*
X1255114D3*
D37*
X1176693Y926693D3*
Y1116693D3*
M02*
