M48
INCH
T01C0.019
T02C0.0276
T03C0.0315
T04C0.032
T05C0.0354
T06C0.04
T07C0.1535
%
T01
X+024458Y+008267
X+024458Y+007267
X+024458Y+006267
X+023767Y+005267
X+022767Y+004767
X+018767Y+004767
X+017767Y+004767
X+016767Y+004767
X+015767Y+004767
X+014767Y+004767
X+013767Y+004767
X+012767Y+004767
X+011767Y+004767
X+010767Y+004767
X+009767Y+004767
X+008767Y+004767
X+007767Y+004767
X+006767Y+004767
X+005767Y+004767
X+004767Y+005267
X+004767Y+006267
X+004767Y+007267
X+004767Y+008267
X+004767Y+009267
X+004767Y+010267
X+004767Y+011267
X+004767Y+012267
X+004767Y+017267
X+004767Y+018267
X+004767Y+019267
X+004767Y+020267
X+004767Y+021267
X+004767Y+022267
X+004767Y+023267
X+004767Y+024267
X+005767Y+024767
X+006767Y+024767
X+007767Y+024767
X+013767Y+024767
X+014767Y+024767
X+015767Y+024767
X+017767Y+024767
X+018767Y+024767
X+022767Y+024767
X+023767Y+024267
X+024458Y+023267
X+024458Y+022267
X+024458Y+021267
X+024458Y+020267
X+024458Y+019267
X+024458Y+018267
X+024458Y+017267
X+024458Y+016267
X+024458Y+015267
X+024458Y+014267
X+024458Y+013267
X+024458Y+012267
X+024458Y+011267
X+024458Y+010267
X+024458Y+009267
X+018701Y+008327
X+018649Y+013086
X+020825Y+021267
X+010248Y+019017
X+009736Y+016218
X+005767Y+018216
T02
X+007433Y+015397
X+006961Y+015082
X+007433Y+014767
X+006961Y+014452
X+007433Y+014137
X+005681Y+013330G85X+005209Y+013330
X+005681Y+016204G85X+005209Y+016204
T03
X+021911Y+010090
X+021911Y+010940
X+021911Y+011791
X+021911Y+012641
X+021911Y+013491
X+021911Y+014342
X+021911Y+015192
X+021911Y+016043
X+021911Y+016893
X+021911Y+017743
X+021911Y+018594
X+021911Y+019444
X+020222Y+019444
X+020222Y+018594
X+020222Y+017743
X+020222Y+016893
X+020222Y+016043
X+020222Y+015192
X+020222Y+014342
X+020222Y+013491
X+020222Y+012641
X+020222Y+011791
X+020222Y+010940
X+020222Y+010090
X+009267Y+008332
X+008267Y+008332
X+008267Y+012332
X+009267Y+012332
X+007017Y+018267
X+008767Y+021767
X+007017Y+022267
X+009767Y+023767
X+010767Y+023767
X+011767Y+023767
X+012767Y+021767
T04
X+010267Y+010767
X+010267Y+009767
X+010267Y+008767
X+011767Y+009267
X+011767Y+011167
X+010267Y+011767
X+009767Y+014017
X+010767Y+014017
X+011767Y+014017
X+012767Y+014017
T05
X+014017Y+021267
X+014017Y+020267
X+014017Y+019267
X+014017Y+018267
X+014017Y+017267
X+014017Y+016267
X+014017Y+015267
X+014017Y+014267
X+014017Y+013267
X+014017Y+012267
X+014017Y+011267
X+014017Y+010267
X+014017Y+009267
X+014017Y+008267
X+017017Y+008267
X+017017Y+009267
X+017017Y+010267
X+017017Y+011267
X+017017Y+012267
X+017017Y+013267
X+017017Y+014267
X+017017Y+015267
X+017017Y+016267
X+017017Y+017267
X+017017Y+018267
X+017017Y+019267
X+017017Y+020267
X+017017Y+021267
T06
X+014267Y+024267
X+014267Y+022487
X+016827Y+022487
X+016827Y+024267
T07
X+021066Y+005554
X+021066Y+023980
T00
M30
